{"accessors":[{"bufferView":0,"byteOffset":0,"componentType":5126,"count":24,"max":[6.337299823760986,6.3246002197265625,0.0],"min":[0.0,0.0,-0.05079999938607216],"type":"VEC3"},{"bufferView":1,"byteOffset":0,"componentType":5125,"count":36,"type":"SCALAR"},{"bufferView":2,"byteOffset":0,"componentType":5126,"count":96,"max":[6.337299823760986,6.3246002197265625,2.5018999576568604],"min":[0.0,0.07620000094175339,0.0],"type":"VEC3"},{"bufferView":3,"byteOffset":0,"componentType":5125,"count":156,"type":"SCALAR"},{"bufferView":4,"byteOffset":0,"componentType":5126,"count":216,"max":[6.337299823760986,6.121399879455566,2.5018999576568604],"min":[0.0,0.0,0.0],"type":"VEC3"},{"bufferView":5,"byteOffset":0,"componentType":5125,"count":408,"type":"SCALAR"},{"bufferView":6,"byteOffset":0,"componentType":5126,"count":28,"max":[6.337299823760986,6.3246002197265625,2.5018999576568604],"min":[0.0,0.0,0.0],"type":"VEC3"},{"bufferView":7,"byteOffset":0,"componentType":5125,"count":42,"type":"SCALAR"},{"bufferView":8,"byteOffset":0,"componentType":5126,"count":1296,"max":[5.797550201416016,6.5278000831604,2.5018999576568604],"min":[-0.9143999814987183,-0.6413499712944031,0.0],"type":"VEC3"},{"bufferView":9,"byteOffset":0,"componentType":5125,"count":1944,"type":"SCALAR"},{"bufferView":10,"byteOffset":0,"componentType":5126,"count":216,"max":[5.797550201416016,6.5278000831604,0.01269999984651804],"min":[-0.9143999814987183,-0.6413499712944031,0.0],"type":"VEC3"},{"bufferView":11,"byteOffset":0,"componentType":5125,"count":324,"type":"SCALAR"},{"bufferView":12,"byteOffset":0,"componentType":5126,"count":432,"max":[6.337299823760986,6.426199913024902,2.7051000595092773],"min":[-0.9143999814987183,-1.701799988746643,2.5018999576568604],"type":"VEC3"},{"bufferView":13,"byteOffset":0,"componentType":5125,"count":792,"type":"SCALAR"},{"bufferView":14,"byteOffset":0,"componentType":5126,"count":2520,"max":[6.375400066375732,6.464300155639648,5.772150039672852],"min":[-0.8508999943733215,-1.6382999420166016,2.5018999576568604],"type":"VEC3"},{"bufferView":15,"byteOffset":0,"componentType":5125,"count":3780,"type":"SCALAR"},{"bufferView":16,"byteOffset":0,"componentType":5126,"count":672,"max":[5.5117998123168945,6.2230000495910645,2.7051000595092773],"min":[0.19050000607967377,1.8287999629974365,2.5146000385284424],"type":"VEC3"},{"bufferView":17,"byteOffset":0,"componentType":5125,"count":1008,"type":"SCALAR"},{"bufferView":18,"byteOffset":0,"componentType":5126,"count":24,"max":[5.695950031280518,6.4770002365112305,2.7241499423980713],"min":[0.0,1.8287999629974365,2.7051000595092773],"type":"VEC3"},{"bufferView":19,"byteOffset":0,"componentType":5125,"count":36,"type":"SCALAR"},{"bufferView":20,"byteOffset":0,"componentType":5126,"count":24,"max":[6.178549766540527,5.168900012969971,2.5018999576568604],"min":[5.416550159454346,1.4097000360488892,0.02539999969303608],"type":"VEC3"},{"bufferView":21,"byteOffset":0,"componentType":5125,"count":36,"type":"SCALAR"},{"bufferView":22,"byteOffset":0,"componentType":5126,"count":144,"max":[5.412740230560303,5.125720024108887,2.4511001110076904],"min":[5.397500038146973,1.4223999977111816,0.07620000094175339],"type":"VEC3"},{"bufferView":23,"byteOffset":0,"componentType":5125,"count":216,"type":"SCALAR"},{"bufferView":24,"byteOffset":0,"componentType":5126,"count":144,"max":[5.397500038146973,5.031740188598633,1.2954000234603882],"min":[5.379720211029053,1.9049999713897705,1.1430000066757202],"type":"VEC3"},{"bufferView":25,"byteOffset":0,"componentType":5125,"count":216,"type":"SCALAR"},{"bufferView":26,"byteOffset":0,"componentType":5126,"count":108,"max":[6.540500164031982,6.680200099945068,6.432549953460693],"min":[-0.20319999754428864,-1.6002000570297241,2.7051000595092773],"type":"VEC3"},{"bufferView":27,"byteOffset":0,"componentType":5125,"count":156,"type":"SCALAR"},{"bufferView":28,"byteOffset":0,"componentType":5126,"count":192,"max":[6.553199768066406,6.69290018081665,5.9753499031066895],"min":[-0.2159000039100647,-1.6510000228881836,2.7051000595092773],"type":"VEC3"},{"bufferView":29,"byteOffset":0,"componentType":5125,"count":288,"type":"SCALAR"},{"bufferView":30,"byteOffset":0,"componentType":5126,"count":864,"max":[6.3119001388549805,3.6866865158081055,5.963733196258545],"min":[0.05079999938607216,-1.549399971961975,2.9368674755096436],"type":"VEC3"},{"bufferView":31,"byteOffset":0,"componentType":5125,"count":1296,"type":"SCALAR"},{"bufferView":32,"byteOffset":0,"componentType":5126,"count":88,"max":[6.349999904632568,6.4770002365112305,5.772150039672852],"min":[-0.01269999984651804,0.0,2.5018999576568604],"type":"VEC3"},{"bufferView":33,"byteOffset":0,"componentType":5125,"count":132,"type":"SCALAR"},{"bufferView":34,"byteOffset":0,"componentType":5126,"count":24,"max":[4.102099895477295,6.4770002365112305,4.857749938964844],"min":[-0.01269999984651804,3.327399969100952,2.7241499423980713],"type":"VEC3"},{"bufferView":35,"byteOffset":0,"componentType":5125,"count":36,"type":"SCALAR"},{"bufferView":36,"byteOffset":0,"componentType":5126,"count":720,"max":[4.127500057220459,6.502399921417236,4.883150100708008],"min":[-0.038100000470876694,3.302000045776367,2.6987500190734863],"type":"VEC3"},{"bufferView":37,"byteOffset":0,"componentType":5125,"count":1080,"type":"SCALAR"},{"bufferView":38,"byteOffset":0,"componentType":5126,"count":1272,"max":[0.0,6.502399921417236,3.790950059890747],"min":[-0.8636000156402588,-1.6002000570297241,2.6542999744415283],"type":"VEC3"},{"bufferView":39,"byteOffset":0,"componentType":5125,"count":1908,"type":"SCALAR"},{"bufferView":40,"byteOffset":0,"componentType":5126,"count":48,"max":[0.0,6.3246002197265625,2.4384000301361084],"min":[-0.6858000159263611,4.419600009918213,0.0],"type":"VEC3"},{"bufferView":41,"byteOffset":0,"componentType":5125,"count":72,"type":"SCALAR"},{"bufferView":42,"byteOffset":0,"componentType":5126,"count":24,"max":[-4.171949863433838,5.638800144195557,2.4384000301361084],"min":[-4.425950050354004,4.419600009918213,0.0],"type":"VEC3"},{"bufferView":43,"byteOffset":0,"componentType":5125,"count":36,"type":"SCALAR"},{"bufferView":44,"byteOffset":0,"componentType":5126,"count":312,"max":[-0.6223000288009644,6.3881001472473145,2.4384000301361084],"min":[-4.171949863433838,4.387849807739258,0.0],"type":"VEC3"},{"bufferView":45,"byteOffset":0,"componentType":5125,"count":468,"type":"SCALAR"},{"bufferView":46,"byteOffset":0,"componentType":5126,"count":1128,"max":[0.0,6.57859992980957,2.4930100440979004],"min":[-4.67995023727417,4.165599822998047,2.4701499938964844],"type":"VEC3"},{"bufferView":47,"byteOffset":0,"componentType":5125,"count":1692,"type":"SCALAR"}],"asset":{"generator":"VTK","version":"2.0"},"bufferViews":[{"buffer":0,"byteLength":288,"byteOffset":0,"target":34962},{"buffer":1,"byteLength":144,"byteOffset":0,"target":34963},{"buffer":2,"byteLength":1152,"byteOffset":0,"target":34962},{"buffer":3,"byteLength":624,"byteOffset":0,"target":34963},{"buffer":4,"byteLength":2592,"byteOffset":0,"target":34962},{"buffer":5,"byteLength":1632,"byteOffset":0,"target":34963},{"buffer":6,"byteLength":336,"byteOffset":0,"target":34962},{"buffer":7,"byteLength":168,"byteOffset":0,"target":34963},{"buffer":8,"byteLength":15552,"byteOffset":0,"target":34962},{"buffer":9,"byteLength":7776,"byteOffset":0,"target":34963},{"buffer":10,"byteLength":2592,"byteOffset":0,"target":34962},{"buffer":11,"byteLength":1296,"byteOffset":0,"target":34963},{"buffer":12,"byteLength":5184,"byteOffset":0,"target":34962},{"buffer":13,"byteLength":3168,"byteOffset":0,"target":34963},{"buffer":14,"byteLength":30240,"byteOffset":0,"target":34962},{"buffer":15,"byteLength":15120,"byteOffset":0,"target":34963},{"buffer":16,"byteLength":8064,"byteOffset":0,"target":34962},{"buffer":17,"byteLength":4032,"byteOffset":0,"target":34963},{"buffer":18,"byteLength":288,"byteOffset":0,"target":34962},{"buffer":19,"byteLength":144,"byteOffset":0,"target":34963},{"buffer":20,"byteLength":288,"byteOffset":0,"target":34962},{"buffer":21,"byteLength":144,"byteOffset":0,"target":34963},{"buffer":22,"byteLength":1728,"byteOffset":0,"target":34962},{"buffer":23,"byteLength":864,"byteOffset":0,"target":34963},{"buffer":24,"byteLength":1728,"byteOffset":0,"target":34962},{"buffer":25,"byteLength":864,"byteOffset":0,"target":34963},{"buffer":26,"byteLength":1296,"byteOffset":0,"target":34962},{"buffer":27,"byteLength":624,"byteOffset":0,"target":34963},{"buffer":28,"byteLength":2304,"byteOffset":0,"target":34962},{"buffer":29,"byteLength":1152,"byteOffset":0,"target":34963},{"buffer":30,"byteLength":10368,"byteOffset":0,"target":34962},{"buffer":31,"byteLength":5184,"byteOffset":0,"target":34963},{"buffer":32,"byteLength":1056,"byteOffset":0,"target":34962},{"buffer":33,"byteLength":528,"byteOffset":0,"target":34963},{"buffer":34,"byteLength":288,"byteOffset":0,"target":34962},{"buffer":35,"byteLength":144,"byteOffset":0,"target":34963},{"buffer":36,"byteLength":8640,"byteOffset":0,"target":34962},{"buffer":37,"byteLength":4320,"byteOffset":0,"target":34963},{"buffer":38,"byteLength":15264,"byteOffset":0,"target":34962},{"buffer":39,"byteLength":7632,"byteOffset":0,"target":34963},{"buffer":40,"byteLength":576,"byteOffset":0,"target":34962},{"buffer":41,"byteLength":288,"byteOffset":0,"target":34963},{"buffer":42,"byteLength":288,"byteOffset":0,"target":34962},{"buffer":43,"byteLength":144,"byteOffset":0,"target":34963},{"buffer":44,"byteLength":3744,"byteOffset":0,"target":34962},{"buffer":45,"byteLength":1872,"byteOffset":0,"target":34963},{"buffer":46,"byteLength":13536,"byteOffset":0,"target":34962},{"buffer":47,"byteLength":6768,"byteOffset":0,"target":34963}],"buffers":[{"byteLength":288,"uri":"data:application/octet-stream;base64,"},{"byteLength":144,"uri":"data:application/octet-stream;base64,"},{"byteLength":1152,"uri":"data:application/octet-stream;base64,"},{"byteLength":624,"uri":"data:application/octet-stream;base64,"},{"byteLength":2592,"uri":"data:application/octet-stream;base64,"},{"byteLength":1632,"uri":"data:application/octet-stream;base64,"},{"byteLength":336,"uri":"data:application/octet-stream;base64,"},{"byteLength":168,"uri":"data:application/octet-stream;base64,"},{"byteLength":15552,"uri":"data:application/octet-stream;base64,"},{"byteLength":7776,"uri":"data:application/octet-stream;base64,"},{"byteLength":2592,"uri":"data:application/octet-stream;base64,"},{"byteLength":1296,"uri":"data:application/octet-stream;base64,"},{"byteLength":5184,"uri":"data:application/octet-stream;base64,"},{"byteLength":3168,"uri":"data:application/octet-stream;base64,"},{"byteLength":30240,"uri":"data:application/octet-stream;base64,"},{"byteLength":15120,"uri":"data:application/octet-stream;base64,"},{"byteLength":8064,"uri":"data:application/octet-stream;base64,"},{"byteLength":4032,"uri":"data:application/octet-stream;base64,"},{"byteLength":288,"uri":"data:application/octet-stream;base64,"},{"byteLength":144,"uri":"data:application/octet-stream;base64,"},{"byteLength":288,"uri":"data:application/octet-stream;base64,"},{"byteLength":144,"uri":"data:application/octet-stream;base64,"},{"byteLength":1728,"uri":"data:application/octet-stream;base64,"},{"byteLength":864,"uri":"data:application/octet-stream;base64,"},{"byteLength":1728,"uri":"data:application/octet-stream;base64,"},{"byteLength":864,"uri":"data:application/octet-stream;base64,"},{"byteLength":1296,"uri":"data:application/octet-stream;base64,"},{"byteLength":624,"uri":"data:application/octet-stream;base64,"},{"byteLength":2304,"uri":"data:application/octet-stream;base64,"},{"byteLength":1152,"uri":"data:application/octet-stream;base64,"},{"byteLength":10368,"uri":"data:application/octet-stream;base64,"},{"byteLength":5184,"uri":"data:application/octet-stream;base64,"},{"byteLength":1056,"uri":"data:application/octet-stream;base64,"},{"byteLength":528,"uri":"data:application/octet-stream;base64,"},{"byteLength":288,"uri":"data:application/octet-stream;base64,"},{"byteLength":144,"uri":"data:application/octet-stream;base64,"},{"byteLength":8640,"uri":"data:application/octet-stream;base64,"},{"byteLength":4320,"uri":"data:application/octet-stream;base64,"},{"byteLength":15264,"uri":"data:application/octet-stream;base64,"},{"byteLength":7632,"uri":"data:application/octet-stream;base64,"},{"byteLength":576,"uri":"data:application/octet-stream;base64,"},{"byteLength":288,"uri":"data:application/octet-stream;base64,"},{"byteLength":288,"uri":"data:application/octet-stream;base64,"},{"byteLength":144,"uri":"data:application/octet-stream;base64,"},{"byteLength":3744,"uri":"data:application/octet-stream;base64,"},{"byteLength":1872,"uri":"data:application/octet-stream;base64,"},{"byteLength":13536,"uri":"data:application/octet-stream;base64,"},{"byteLength":6768,"uri":"data:application/octet-stream;base64,"}],"cameras":[{"orthographic":{"xmag":10.0375,"ymag":7.3,"zfar":67.41824909037335,"znear":0.06741824909037335},"type":"orthographic"}],"materials":[{"pbrMetallicRoughness":{"baseColorFactor":[0.7294117647058823,0.7411764705882353,0.7215686274509804,1.0],"metallicFactor":0.0,"roughnessFactor":0.85}},{"pbrMetallicRoughness":{"baseColorFactor":[0.9333333333333333,0.9176470588235294,0.8823529411764706,1.0],"metallicFactor":0.0,"roughnessFactor":0.45}},{"pbrMetallicRoughness":{"baseColorFactor":[0.34509803921568627,0.5137254901960784,0.5764705882352941,1.0],"metallicFactor":0.35,"roughnessFactor":0.17}},{"pbrMetallicRoughness":{"baseColorFactor":[0.6901960784313725,0.7372549019607844,0.7568627450980392,1.0],"metallicFactor":0.0,"roughnessFactor":0.85}},{"pbrMetallicRoughness":{"baseColorFactor":[0.2980392156862745,0.3843137254901961,0.43137254901960786,1.0],"metallicFactor":0.5,"roughnessFactor":0.32}},{"pbrMetallicRoughness":{"baseColorFactor":[0.14901960784313725,0.2235294117647059,0.2549019607843137,1.0],"metallicFactor":0.45,"roughnessFactor":0.4}},{"pbrMetallicRoughness":{"baseColorFactor":[0.2196078431372549,0.38823529411764707,0.48627450980392156,1.0],"metallicFactor":0.48,"roughnessFactor":0.32}},{"pbrMetallicRoughness":{"baseColorFactor":[0.6392156862745098,0.396078431372549,0.2627450980392157,1.0],"metallicFactor":0.48,"roughnessFactor":0.35}},{"pbrMetallicRoughness":{"baseColorFactor":[0.7098039215686275,0.5803921568627451,0.4196078431372549,1.0],"metallicFactor":0.0,"roughnessFactor":0.68}},{"pbrMetallicRoughness":{"baseColorFactor":[0.7098039215686275,0.5803921568627451,0.4196078431372549,1.0],"metallicFactor":0.0,"roughnessFactor":0.68}},{"pbrMetallicRoughness":{"baseColorFactor":[0.7098039215686275,0.5803921568627451,0.4196078431372549,1.0],"metallicFactor":0.0,"roughnessFactor":0.68}},{"pbrMetallicRoughness":{"baseColorFactor":[0.5803921568627451,0.45098039215686275,0.2980392156862745,1.0],"metallicFactor":0.0,"roughnessFactor":0.73}},{"pbrMetallicRoughness":{"baseColorFactor":[0.14901960784313725,0.2235294117647059,0.2549019607843137,1.0],"metallicFactor":0.45,"roughnessFactor":0.4}},{"pbrMetallicRoughness":{"baseColorFactor":[0.1411764705882353,0.1843137254901961,0.2196078431372549,1.0],"metallicFactor":0.4,"roughnessFactor":0.25}},{"pbrMetallicRoughness":{"baseColorFactor":[0.9333333333333333,0.9176470588235294,0.8823529411764706,1.0],"metallicFactor":0.0,"roughnessFactor":0.45}},{"pbrMetallicRoughness":{"baseColorFactor":[0.13333333333333333,0.20784313725490197,0.27058823529411763,1.0],"metallicFactor":0.65,"roughnessFactor":0.13}},{"pbrMetallicRoughness":{"baseColorFactor":[0.6901960784313725,0.7372549019607844,0.7568627450980392,1.0],"metallicFactor":0.0,"roughnessFactor":0.85}},{"pbrMetallicRoughness":{"baseColorFactor":[0.34509803921568627,0.5137254901960784,0.5764705882352941,1.0],"metallicFactor":0.35,"roughnessFactor":0.17}},{"pbrMetallicRoughness":{"baseColorFactor":[0.9333333333333333,0.9176470588235294,0.8823529411764706,1.0],"metallicFactor":0.0,"roughnessFactor":0.45}},{"pbrMetallicRoughness":{"baseColorFactor":[0.9333333333333333,0.9176470588235294,0.8823529411764706,1.0],"metallicFactor":0.0,"roughnessFactor":0.45}},{"pbrMetallicRoughness":{"baseColorFactor":[0.7098039215686275,0.5803921568627451,0.4196078431372549,1.0],"metallicFactor":0.0,"roughnessFactor":0.68}},{"pbrMetallicRoughness":{"baseColorFactor":[0.6901960784313725,0.7372549019607844,0.7568627450980392,1.0],"metallicFactor":0.0,"roughnessFactor":0.85}},{"pbrMetallicRoughness":{"baseColorFactor":[0.2980392156862745,0.3843137254901961,0.43137254901960786,1.0],"metallicFactor":0.5,"roughnessFactor":0.32}},{"pbrMetallicRoughness":{"baseColorFactor":[0.5137254901960784,0.596078431372549,0.5490196078431373,1.0],"metallicFactor":0.0,"roughnessFactor":0.65}}],"meshes":[{"name":"mesh0","primitives":[{"attributes":{"POSITION":0},"indices":1,"material":0,"mode":4}]},{"name":"mesh1","primitives":[{"attributes":{"POSITION":2},"indices":3,"material":1,"mode":4}]},{"name":"mesh2","primitives":[{"attributes":{"POSITION":4},"indices":5,"material":2,"mode":4}]},{"name":"mesh3","primitives":[{"attributes":{"POSITION":6},"indices":7,"material":3,"mode":4}]},{"name":"mesh4","primitives":[{"attributes":{"POSITION":8},"indices":9,"material":4,"mode":4}]},{"name":"mesh5","primitives":[{"attributes":{"POSITION":10},"indices":11,"material":5,"mode":4}]},{"name":"mesh6","primitives":[{"attributes":{"POSITION":12},"indices":13,"material":6,"mode":4}]},{"name":"mesh7","primitives":[{"attributes":{"POSITION":14},"indices":15,"material":7,"mode":4}]},{"name":"mesh8","primitives":[{"attributes":{"POSITION":16},"indices":17,"material":8,"mode":4}]},{"name":"mesh9","primitives":[{"attributes":{"POSITION":18},"indices":19,"material":9,"mode":4}]},{"name":"mesh10","primitives":[{"attributes":{"POSITION":20},"indices":21,"material":10,"mode":4}]},{"name":"mesh11","primitives":[{"attributes":{"POSITION":22},"indices":23,"material":11,"mode":4}]},{"name":"mesh12","primitives":[{"attributes":{"POSITION":24},"indices":25,"material":12,"mode":4}]},{"name":"mesh13","primitives":[{"attributes":{"POSITION":26},"indices":27,"material":13,"mode":4}]},{"name":"mesh14","primitives":[{"attributes":{"POSITION":28},"indices":29,"material":14,"mode":4}]},{"name":"mesh15","primitives":[{"attributes":{"POSITION":30},"indices":31,"material":15,"mode":4}]},{"name":"mesh16","primitives":[{"attributes":{"POSITION":32},"indices":33,"material":16,"mode":4}]},{"name":"mesh17","primitives":[{"attributes":{"POSITION":34},"indices":35,"material":17,"mode":4}]},{"name":"mesh18","primitives":[{"attributes":{"POSITION":36},"indices":37,"material":18,"mode":4}]},{"name":"mesh19","primitives":[{"attributes":{"POSITION":38},"indices":39,"material":19,"mode":4}]},{"name":"mesh20","primitives":[{"attributes":{"POSITION":40},"indices":41,"material":20,"mode":4}]},{"name":"mesh21","primitives":[{"attributes":{"POSITION":42},"indices":43,"material":21,"mode":4}]},{"name":"mesh22","primitives":[{"attributes":{"POSITION":44},"indices":45,"material":22,"mode":4}]},{"name":"mesh23","primitives":[{"attributes":{"POSITION":46},"indices":47,"material":23,"mode":4}]}],"nodes":[{"mesh":0,"name":"mesh0"},{"mesh":1,"name":"mesh1"},{"mesh":2,"name":"mesh2"},{"mesh":3,"name":"mesh3"},{"mesh":4,"name":"mesh4"},{"mesh":5,"name":"mesh5"},{"mesh":6,"name":"mesh6"},{"mesh":7,"name":"mesh7"},{"mesh":8,"name":"mesh8"},{"mesh":9,"name":"mesh9"},{"mesh":10,"name":"mesh10"},{"mesh":11,"name":"mesh11"},{"mesh":12,"name":"mesh12"},{"mesh":13,"name":"mesh13"},{"mesh":14,"name":"mesh14"},{"mesh":15,"name":"mesh15"},{"mesh":16,"name":"mesh16"},{"mesh":17,"name":"mesh17"},{"mesh":18,"name":"mesh18"},{"mesh":19,"name":"mesh19"},{"mesh":20,"name":"mesh20"},{"mesh":21,"name":"mesh21"},{"mesh":22,"name":"mesh22"},{"mesh":23,"name":"mesh23"},{"camera":0,"matrix":[-0.799549324225912,-0.600600431343408,1.4912784597639695e-17,0.0,0.19605277080163203,-0.26099525112967265,0.9452220849878414,-0.0,-0.5677007919590129,0.755751679295436,0.3264279553764324,-0.0,-15.0,24.000000000000004,12.0,1.0],"name":"Camera Node"},{"children":[0,1,2,3,4,5,6,7,8,9,10,11,12,13,14,15,16,17,18,19,20,21,22,23,24],"name":"Renderer Node"}],"scene":0,"scenes":[{"name":"Layer 0","nodes":[25]}]}