G04 #@! TF.GenerationSoftware,KiCad,Pcbnew,9.0.8+dfsg-1*
G04 #@! TF.CreationDate,2026-10-05T23:59:19+00:00*
G04 #@! TF.ProjectId,nezha-qwiic,6e657a68-612d-4717-9769-69632e6b6963,B*
G04 #@! TF.SameCoordinates,Original*
G04 #@! TF.FileFunction,Copper,L1,Top*
G04 #@! TF.FilePolarity,Positive*
%FSLAX46Y46*%
G04 Gerber Fmt 4.6, Leading zero omitted, Abs format (unit mm)*
G04 Created by KiCad (PCBNEW 9.0.8+dfsg-1) date 2026-10-05 23:59:19*
%MOMM*%
%LPD*%
G01*
G04 APERTURE LIST*
G04 #@! TA.AperFunction,SMDPad,CuDef*
%ADD10R,5.500000X2.350000*%
G04 #@! TD*
G04 #@! TA.AperFunction,SMDPad,CuDef*
%ADD11R,3.400000X0.760000*%
G04 #@! TD*
G04 #@! TA.AperFunction,SMDPad,CuDef*
%ADD12R,3.430000X1.270000*%
G04 #@! TD*
G04 #@! TA.AperFunction,Conductor*
%ADD13C,0.400000*%
G04 #@! TD*
G04 APERTURE END LIST*
D10*
X6650000Y-17700000D03*
X6650000Y-7300000D03*
D11*
X15400000Y-14405000D03*
X15400000Y-13135000D03*
X15400000Y-11865000D03*
X15400000Y-10595000D03*
G04 #@! TA.AperFunction,SMDPad,CuDef*
G36*
G01*
X37950000Y-15400000D02*
X36650000Y-15400000D01*
G75*
G02*
X36400000Y-15150000I0J250000D01*
G01*
X36400000Y-14450000D01*
G75*
G02*
X36650000Y-14200000I250000J0D01*
G01*
X37950000Y-14200000D01*
G75*
G02*
X38200000Y-14450000I0J-250000D01*
G01*
X38200000Y-15150000D01*
G75*
G02*
X37950000Y-15400000I-250000J0D01*
G01*
G37*
G04 #@! TD.AperFunction*
G04 #@! TA.AperFunction,SMDPad,CuDef*
G36*
G01*
X37950000Y-9800000D02*
X36650000Y-9800000D01*
G75*
G02*
X36400000Y-9550000I0J250000D01*
G01*
X36400000Y-8850000D01*
G75*
G02*
X36650000Y-8600000I250000J0D01*
G01*
X37950000Y-8600000D01*
G75*
G02*
X38200000Y-8850000I0J-250000D01*
G01*
X38200000Y-9550000D01*
G75*
G02*
X37950000Y-9800000I-250000J0D01*
G01*
G37*
G04 #@! TD.AperFunction*
G04 #@! TA.AperFunction,SMDPad,CuDef*
G36*
G01*
X40450000Y-13800000D02*
X39200000Y-13800000D01*
G75*
G02*
X39050000Y-13650000I0J150000D01*
G01*
X39050000Y-13350000D01*
G75*
G02*
X39200000Y-13200000I150000J0D01*
G01*
X40450000Y-13200000D01*
G75*
G02*
X40600000Y-13350000I0J-150000D01*
G01*
X40600000Y-13650000D01*
G75*
G02*
X40450000Y-13800000I-150000J0D01*
G01*
G37*
G04 #@! TD.AperFunction*
G04 #@! TA.AperFunction,SMDPad,CuDef*
G36*
G01*
X40450000Y-12800000D02*
X39200000Y-12800000D01*
G75*
G02*
X39050000Y-12650000I0J150000D01*
G01*
X39050000Y-12350000D01*
G75*
G02*
X39200000Y-12200000I150000J0D01*
G01*
X40450000Y-12200000D01*
G75*
G02*
X40600000Y-12350000I0J-150000D01*
G01*
X40600000Y-12650000D01*
G75*
G02*
X40450000Y-12800000I-150000J0D01*
G01*
G37*
G04 #@! TD.AperFunction*
G04 #@! TA.AperFunction,SMDPad,CuDef*
G36*
G01*
X40450000Y-11800000D02*
X39200000Y-11800000D01*
G75*
G02*
X39050000Y-11650000I0J150000D01*
G01*
X39050000Y-11350000D01*
G75*
G02*
X39200000Y-11200000I150000J0D01*
G01*
X40450000Y-11200000D01*
G75*
G02*
X40600000Y-11350000I0J-150000D01*
G01*
X40600000Y-11650000D01*
G75*
G02*
X40450000Y-11800000I-150000J0D01*
G01*
G37*
G04 #@! TD.AperFunction*
G04 #@! TA.AperFunction,SMDPad,CuDef*
G36*
G01*
X40450000Y-10800000D02*
X39200000Y-10800000D01*
G75*
G02*
X39050000Y-10650000I0J150000D01*
G01*
X39050000Y-10350000D01*
G75*
G02*
X39200000Y-10200000I150000J0D01*
G01*
X40450000Y-10200000D01*
G75*
G02*
X40600000Y-10350000I0J-150000D01*
G01*
X40600000Y-10650000D01*
G75*
G02*
X40450000Y-10800000I-150000J0D01*
G01*
G37*
G04 #@! TD.AperFunction*
G04 #@! TA.AperFunction,SMDPad,CuDef*
G36*
G01*
X23375000Y-7775000D02*
X24625000Y-7775000D01*
G75*
G02*
X24875000Y-8025000I0J-250000D01*
G01*
X24875000Y-8650000D01*
G75*
G02*
X24625000Y-8900000I-250000J0D01*
G01*
X23375000Y-8900000D01*
G75*
G02*
X23125000Y-8650000I0J250000D01*
G01*
X23125000Y-8025000D01*
G75*
G02*
X23375000Y-7775000I250000J0D01*
G01*
G37*
G04 #@! TD.AperFunction*
G04 #@! TA.AperFunction,SMDPad,CuDef*
G36*
G01*
X23375000Y-10700000D02*
X24625000Y-10700000D01*
G75*
G02*
X24875000Y-10950000I0J-250000D01*
G01*
X24875000Y-11575000D01*
G75*
G02*
X24625000Y-11825000I-250000J0D01*
G01*
X23375000Y-11825000D01*
G75*
G02*
X23125000Y-11575000I0J250000D01*
G01*
X23125000Y-10950000D01*
G75*
G02*
X23375000Y-10700000I250000J0D01*
G01*
G37*
G04 #@! TD.AperFunction*
D12*
X28040000Y-15810000D03*
X30960000Y-13270000D03*
X28040000Y-10730000D03*
X30960000Y-8190000D03*
D13*
X22500000Y-13905000D02*
X24405000Y-15810000D01*
X24405000Y-15810000D02*
X28040000Y-15810000D01*
X15400000Y-14405000D02*
X22500000Y-13905000D01*
X35110000Y-13500000D02*
X39825000Y-13500000D01*
X32800000Y-15810000D02*
X35110000Y-13500000D01*
X28040000Y-15810000D02*
X32800000Y-15810000D01*
X23000000Y-12635000D02*
X23635000Y-13269999D01*
X15400000Y-13135000D02*
X23000000Y-12635000D01*
X33000000Y-13269999D02*
X33770000Y-12500000D01*
X23635000Y-13269999D02*
X30960000Y-13270000D01*
X30960000Y-13270000D02*
X33000000Y-13269999D01*
X33770000Y-12500000D02*
X39825000Y-12500000D01*
X33000000Y-10730000D02*
X33770000Y-11500000D01*
X26300000Y-9800000D02*
X27230000Y-10730000D01*
X33770000Y-11500000D02*
X39825000Y-11500000D01*
X28040000Y-10730000D02*
X33000000Y-10730000D01*
X22795000Y-9800000D02*
X26300000Y-9800000D01*
X22500000Y-10095000D02*
X22795000Y-9800000D01*
X15400000Y-10595000D02*
X22500000Y-10095000D01*
X27230000Y-10730000D02*
X28040000Y-10730000D01*
X26147500Y-8190000D02*
X30960000Y-8190000D01*
X26000000Y-8337500D02*
X26147500Y-8190000D01*
X30960000Y-8190000D02*
X33300000Y-8190000D01*
X24000000Y-8337500D02*
X26000000Y-8337500D01*
X33300000Y-8190000D02*
X35610000Y-10500000D01*
X35610000Y-10500000D02*
X39825000Y-10500000D01*
X15400000Y-11865000D02*
X24000000Y-11262500D01*
M02*
