<?xml version="1.0" encoding="UTF-8" standalone="no"?>
<!DOCTYPE svg PUBLIC "-//W3C//DTD SVG 1.1//EN" "http://www.w3.org/Graphics/SVG/1.1/DTD/svg11.dtd">
<svg xmlns="http://www.w3.org/2000/svg" xmlns:dc="http://purl.org/dc/elements/1.1/" version="1.1" xmlns:xl="http://www.w3.org/1999/xlink" viewBox="-1 -1 3419 3174" width="3419" height="3174">
  <defs/>
  <g id="Roof_Profile" stroke="none" stroke-dasharray="none" fill="none" fill-opacity="1" stroke-opacity="1">
    <title>Roof Profile</title>
    <g id="Roof_Profile_Layer_1">
      <title>Layer 1</title>
      <g id="Group_2">
        <g id="Graphic_4">
          <rect x="0" y="0" width="1497" height="1566" stroke="black" stroke-linecap="round" stroke-linejoin="round" stroke-width="2"/>
        </g>
        <g id="Graphic_3">
          <rect x="34.5" y="36" width="1416" height="1482" stroke="black" stroke-linecap="round" stroke-linejoin="round" stroke-width="2"/>
        </g>
      </g>
      <g id="Graphic_7">
        <rect x="0" y="2584.5" width="1497" height="588" fill="white"/>
        <rect x="0" y="2584.5" width="1497" height="588" stroke="gray" stroke-linecap="round" stroke-linejoin="round" stroke-width="1"/>
        <text transform="translate(5 2860.58)" fill="black">
          <tspan font-family="Helvetica Neue" font-size="30" fill="black" x="671.83" y="29" xml:space="preserve">North Side</tspan>
        </text>
      </g>
      <g id="Graphic_10">
        <rect x="1600.5" y="2584.5" width="1566" height="588" fill="white"/>
        <rect x="1600.5" y="2584.5" width="1566" height="588" stroke="gray" stroke-linecap="round" stroke-linejoin="round" stroke-width="1"/>
        <text transform="translate(2094.5 2860.58)" fill="black">
          <tspan font-family="Helvetica Neue" font-size="30" fill="black" x="221.515" y="29" xml:space="preserve">West Side</tspan>
        </text>
      </g>
      <g id="Graphic_12">
        <rect x="4.5" y="2368.5" width="1492.5" height="216" fill="white"/>
        <rect x="4.5" y="2368.5" width="1492.5" height="216" stroke="gray" stroke-linecap="round" stroke-linejoin="round" stroke-width="1"/>
      </g>
      <g id="Graphic_14">
        <rect x="0" y="1860" width="1492.5" height="504" fill="white"/>
        <rect x="0" y="1860" width="1492.5" height="504" stroke="gray" stroke-linecap="round" stroke-linejoin="round" stroke-width="1"/>
      </g>
      <g id="Graphic_11">
        <rect x="1605.75" y="2367.75" width="1566" height="216" fill="white"/>
        <rect x="1605.75" y="2367.75" width="1566" height="216" stroke="gray" stroke-linecap="round" stroke-linejoin="round" stroke-width="1"/>
      </g>
      <g id="Graphic_13">
        <path d="M 3417 2443.5 L 3417 2451 L 3171 2370 L 1605.75 2368.5 L 1605.75 2152.5 L 1605 1981.5 L 2226 1981.5 Z" fill="white"/>
        <path d="M 3417 2443.5 L 3417 2451 L 3171 2370 L 1605.75 2368.5 L 1605.75 2152.5 L 1605 1981.5 L 2226 1981.5 Z" stroke="gray" stroke-linecap="round" stroke-linejoin="round" stroke-width="1"/>
      </g>
      <g id="Graphic_15">
        <rect x="1600.5" y="2548.5" width="948" height="36" fill="#ccc"/>
        <rect x="1600.5" y="2548.5" width="948" height="36" stroke="gray" stroke-linecap="round" stroke-linejoin="round" stroke-width="1"/>
      </g>
      <g id="Graphic_17">
        <rect x="2940" y="2578.5" width="226.5" height="12" fill="#ccc"/>
        <rect x="2940" y="2578.5" width="226.5" height="12" stroke="gray" stroke-linecap="round" stroke-linejoin="round" stroke-width="1"/>
      </g>
      <g id="Graphic_19">
        <rect x="1544.25" y="1984.5" width="9" height="1188" fill="white"/>
        <rect x="1544.25" y="1984.5" width="9" height="1188" stroke="gray" stroke-linecap="round" stroke-linejoin="round" stroke-width="1"/>
      </g>
      <g id="Graphic_21">
        <rect x="1617" y="1966.5" width="9" height="576" fill="white"/>
        <rect x="1617" y="1966.5" width="9" height="576" stroke="gray" stroke-linecap="round" stroke-linejoin="round" stroke-width="1"/>
      </g>
    </g>
  </g>
</svg>
