<?xml version='1.0' encoding='utf-8'?>
<COLLADA xmlns="http://www.collada.org/2005/11/COLLADASchema" version="1.4.1"><asset><created>2026-09-07T00:00:00Z</created><modified>2026-09-07T00:00:00Z</modified><unit name="meter" meter="1" /><up_axis>Z_UP</up_axis></asset><library_geometries><geometry id="part0" name="South entry door (assumed height)"><mesh><source id="part0pos"><float_array id="part0array" count="24">2.8321 0.07619999999999999 0.0 2.8321 0.1016 2.032 2.8321 0.1016 0.0 2.8321 0.07619999999999999 2.032 3.6449 0.1016 2.032 3.6449 0.07619999999999999 0.0 3.6449 0.1016 0.0 3.6449 0.07619999999999999 2.032</float_array><technique_common><accessor source="#part0array" count="8" stride="3"><param name="X" type="float" /><param name="Y" type="float" /><param name="Z" type="float" /></accessor></technique_common></source><vertices id="part0verts"><input semantic="POSITION" source="#part0pos" /></vertices><triangles count="12"><input semantic="VERTEX" source="#part0verts" offset="0" /><p>0 1 2 0 3 1 4 5 6 7 5 4 5 7 0 0 7 3 4 6 2 4 2 1 2 6 0 0 6 5 4 1 3 4 3 7</p></triangles></mesh></geometry><geometry id="part1" name="South window (confirmed sill and height)"><mesh><source id="part1pos"><float_array id="part1array" count="24">1.0668 0.07619999999999999 1.2191999999999998 1.0668 0.1016 1.8288 1.0668 0.1016 1.2191999999999998 1.0668 0.07619999999999999 1.8288 1.778 0.1016 1.8288 1.778 0.07619999999999999 1.2191999999999998 1.778 0.1016 1.2191999999999998 1.778 0.07619999999999999 1.8288</float_array><technique_common><accessor source="#part1array" count="8" stride="3"><param name="X" type="float" /><param name="Y" type="float" /><param name="Z" type="float" /></accessor></technique_common></source><vertices id="part1verts"><input semantic="POSITION" source="#part1pos" /></vertices><triangles count="12"><input semantic="VERTEX" source="#part1verts" offset="0" /><p>0 1 2 0 3 1 4 5 6 7 5 4 0 5 3 5 7 3 6 2 1 4 6 1 2 5 0 2 6 5 7 1 3 4 1 7</p></triangles></mesh></geometry><geometry id="part2" name="West window 1 (confirmed sill and height)"><mesh><source id="part2pos"><float_array id="part2array" count="24">0.09525 2.5781 1.2191999999999998 0.09525 1.8541999999999998 1.2191999999999998 0.09525 2.5781 1.8288 0.09525 1.8541999999999998 1.8288 0.12065000000000002 1.8541999999999998 1.2191999999999998 0.12065000000000002 2.5781 1.2191999999999998 0.12065000000000002 2.5781 1.8288 0.12065000000000002 1.8541999999999998 1.8288</float_array><technique_common><accessor source="#part2array" count="8" stride="3"><param name="X" type="float" /><param name="Y" type="float" /><param name="Z" type="float" /></accessor></technique_common></source><vertices id="part2verts"><input semantic="POSITION" source="#part2pos" /></vertices><triangles count="12"><input semantic="VERTEX" source="#part2verts" offset="0" /><p>0 1 2 1 3 2 4 5 6 7 4 6 4 3 1 4 7 3 2 5 0 6 5 2 0 5 1 1 5 4 6 2 3 6 3 7</p></triangles></mesh></geometry><geometry id="part3" name="West window 2 (confirmed sill and height)"><mesh><source id="part3pos"><float_array id="part3array" count="24">0.09525 4.622799999999999 1.2191999999999998 0.09525 3.89255 1.2191999999999998 0.09525 4.622799999999999 1.8288 0.09525 3.89255 1.8288 0.12065000000000002 3.89255 1.2191999999999998 0.12065000000000002 4.622799999999999 1.2191999999999998 0.12065000000000002 4.622799999999999 1.8288 0.12065000000000002 3.89255 1.8288</float_array><technique_common><accessor source="#part3array" count="8" stride="3"><param name="X" type="float" /><param name="Y" type="float" /><param name="Z" type="float" /></accessor></technique_common></source><vertices id="part3verts"><input semantic="POSITION" source="#part3pos" /></vertices><triangles count="12"><input semantic="VERTEX" source="#part3verts" offset="0" /><p>0 1 2 1 3 2 4 5 6 7 4 6 4 3 1 4 7 3 2 5 0 6 5 2 0 5 1 1 5 4 6 2 3 6 3 7</p></triangles></mesh></geometry><geometry id="part4" name="North garage door (assumed height)"><mesh><source id="part4pos"><float_array id="part4array" count="24">1.42875 6.223 0.0 1.42875 6.223 2.1336 1.42875 6.2484 0.0 1.42875 6.2484 2.1336 5.61975 6.223 2.1336 5.61975 6.223 0.0 5.61975 6.2484 0.0 5.61975 6.2484 2.1336</float_array><technique_common><accessor source="#part4array" count="8" stride="3"><param name="X" type="float" /><param name="Y" type="float" /><param name="Z" type="float" /></accessor></technique_common></source><vertices id="part4verts"><input semantic="POSITION" source="#part4pos" /></vertices><triangles count="12"><input semantic="VERTEX" source="#part4verts" offset="0" /><p>0 1 2 2 1 3 4 5 6 4 6 7 5 4 0 0 4 1 7 6 2 7 2 3 2 5 0 2 6 5 4 3 1 7 3 4</p></triangles></mesh></geometry><geometry id="part5" name="South window opening"><mesh><source id="part5pos"><float_array id="part5array" count="72">0.0 0.0 0.0 0.0 0.0 2.5018999999999996 0.0 0.15239999999999998 0.0 0.0 0.15239999999999998 2.5018999999999996 1.0668 0.0 1.2191999999999998 2.8321 0.0 0.0 1.0668 0.0 1.8288 1.778 0.0 1.2191999999999998 1.778 0.0 1.8288 2.8321 0.0 2.032 3.6449 0.0 0.0 6.337299999999999 0.0 0.0 3.6449 0.0 2.032 6.337299999999999 0.0 2.5018999999999996 6.337299999999999 0.15239999999999998 2.5018999999999996 1.0668 0.15239999999999998 1.2191999999999998 2.8321 0.15239999999999998 0.0 1.0668 0.15239999999999998 1.8288 1.778 0.15239999999999998 1.2191999999999998 1.778 0.15239999999999998 1.8288 2.8321 0.15239999999999998 2.032 6.337299999999999 0.15239999999999998 0.0 3.6449 0.15239999999999998 0.0 3.6449 0.15239999999999998 2.032</float_array><technique_common><accessor source="#part5array" count="24" stride="3"><param name="X" type="float" /><param name="Y" type="float" /><param name="Z" type="float" /></accessor></technique_common></source><vertices id="part5verts"><input semantic="POSITION" source="#part5pos" /></vertices><triangles count="48"><input semantic="VERTEX" source="#part5verts" offset="0" /><p>0 1 2 2 1 3 4 1 0 0 5 4 4 6 1 5 7 4 6 8 1 7 9 8 5 9 7 8 9 1 10 11 12 11 13 12 13 1 12 12 1 9 13 3 1 14 3 13 3 15 2 16 2 15 17 15 3 18 16 15 19 17 3 20 18 19 20 16 18 20 19 3 21 22 23 14 21 23 3 14 23 3 23 20 2 16 0 0 16 5 9 5 16 9 16 20 20 23 9 9 23 12 13 11 21 13 21 14 10 12 22 22 12 23 22 21 10 10 21 11 17 19 6 6 19 8 7 8 18 18 8 19 18 15 4 18 4 7 6 4 15 6 15 17</p></triangles></mesh></geometry><geometry id="part6" name="North garage door opening"><mesh><source id="part6pos"><float_array id="part6array" count="48">0.0 6.1213999999999995 0.0 0.0 6.1213999999999995 2.5018999999999996 0.0 6.324599999999999 0.0 0.0 6.324599999999999 2.5018999999999996 1.42875 6.1213999999999995 0.0 1.42875 6.1213999999999995 2.1336 6.337299999999999 6.1213999999999995 0.0 5.61975 6.1213999999999995 2.1336 5.61975 6.1213999999999995 0.0 6.337299999999999 6.1213999999999995 2.5018999999999996 6.337299999999999 6.324599999999999 2.5018999999999996 1.42875 6.324599999999999 2.1336 1.42875 6.324599999999999 0.0 5.61975 6.324599999999999 2.1336 6.337299999999999 6.324599999999999 0.0 5.61975 6.324599999999999 0.0</float_array><technique_common><accessor source="#part6array" count="16" stride="3"><param name="X" type="float" /><param name="Y" type="float" /><param name="Z" type="float" /></accessor></technique_common></source><vertices id="part6verts"><input semantic="POSITION" source="#part6pos" /></vertices><triangles count="28"><input semantic="VERTEX" source="#part6verts" offset="0" /><p>0 1 2 2 1 3 4 5 0 0 5 1 6 7 8 7 9 5 6 9 7 9 1 5 10 3 1 10 1 9 11 12 2 11 2 3 13 14 15 10 13 11 10 14 13 3 10 11 2 4 0 2 12 4 5 4 12 5 12 11 11 13 5 5 13 7 8 7 15 15 7 13 15 14 8 8 14 6 9 6 14 9 14 10</p></triangles></mesh></geometry><geometry id="part7" name="East wall"><mesh><source id="part7pos"><float_array id="part7array" count="24">6.1849 6.1213999999999995 0.0 6.1849 0.15239999999999998 0.0 6.1849 6.1213999999999995 2.5018999999999996 6.1849 0.15239999999999998 2.5018999999999996 6.337299999999999 0.15239999999999998 0.0 6.337299999999999 6.1213999999999995 0.0 6.337299999999999 6.1213999999999995 2.5018999999999996 6.337299999999999 0.15239999999999998 2.5018999999999996</float_array><technique_common><accessor source="#part7array" count="8" stride="3"><param name="X" type="float" /><param name="Y" type="float" /><param name="Z" type="float" /></accessor></technique_common></source><vertices id="part7verts"><input semantic="POSITION" source="#part7pos" /></vertices><triangles count="12"><input semantic="VERTEX" source="#part7verts" offset="0" /><p>0 1 2 1 3 2 4 5 6 7 4 6 4 3 1 4 7 3 2 5 0 6 5 2 1 0 4 0 5 4 2 3 7 6 2 7</p></triangles></mesh></geometry><geometry id="part8" name="West window 2 opening"><mesh><source id="part8pos"><float_array id="part8array" count="72">0.0 6.1213999999999995 0.0 0.0 4.622799999999999 1.2191999999999998 0.0 6.1213999999999995 2.5018999999999996 0.0 4.622799999999999 1.8288 0.0 3.89255 1.2191999999999998 0.0 3.89255 1.8288 0.0 2.5781 1.2191999999999998 0.0 2.5781 1.8288 0.0 0.15239999999999998 0.0 0.0 1.8541999999999998 1.2191999999999998 0.0 0.15239999999999998 2.5018999999999996 0.0 1.8541999999999998 1.8288 0.1905 0.15239999999999998 0.0 0.1905 0.15239999999999998 2.5018999999999996 0.1905 6.1213999999999995 2.5018999999999996 0.1905 6.1213999999999995 0.0 0.1905 3.89255 1.2191999999999998 0.1905 4.622799999999999 1.2191999999999998 0.1905 4.622799999999999 1.8288 0.1905 3.89255 1.8288 0.1905 2.5781 1.2191999999999998 0.1905 1.8541999999999998 1.2191999999999998 0.1905 2.5781 1.8288 0.1905 1.8541999999999998 1.8288</float_array><technique_common><accessor source="#part8array" count="24" stride="3"><param name="X" type="float" /><param name="Y" type="float" /><param name="Z" type="float" /></accessor></technique_common></source><vertices id="part8verts"><input semantic="POSITION" source="#part8pos" /></vertices><triangles count="52"><input semantic="VERTEX" source="#part8verts" offset="0" /><p>0 1 2 1 3 2 0 4 1 3 5 2 0 6 4 4 7 5 6 7 4 6 8 9 0 8 6 9 10 11 11 10 7 8 10 9 10 2 7 7 2 5 12 10 8 12 13 10 14 2 10 14 10 13 0 15 8 8 15 12 2 15 0 14 15 2 1 4 16 17 1 16 17 18 1 1 18 3 5 3 19 3 18 19 19 16 4 19 4 5 20 6 9 20 9 21 20 22 6 6 22 7 23 21 9 23 9 11 7 22 11 11 22 23 17 15 14 18 17 14 16 15 17 19 18 14 20 15 16 22 16 19 22 20 16 12 20 21 12 15 20 13 21 23 13 23 22 13 12 21 14 13 22 14 22 19</p></triangles></mesh></geometry><geometry id="part9" name="Floor datum surface (no thickness specified)"><mesh><source id="part9pos"><float_array id="part9array" count="12">6.337299999999999 6.324599999999999 0.0 0.0 0.0 0.0 6.337299999999999 0.0 0.0 0.0 6.324599999999999 0.0</float_array><technique_common><accessor source="#part9array" count="4" stride="3"><param name="X" type="float" /><param name="Y" type="float" /><param name="Z" type="float" /></accessor></technique_common></source><vertices id="part9verts"><input semantic="POSITION" source="#part9pos" /></vertices><triangles count="2"><input semantic="VERTEX" source="#part9verts" offset="0" /><p>0 1 2 0 3 1</p></triangles></mesh></geometry><geometry id="part10" name="Existing hip roof envelope - 18 inch N-S ridge"><mesh><source id="part10pos"><float_array id="part10array" count="18">3.1686499999999995 2.9337 4.0259 0.0 0.0 2.5018999999999996 6.337299999999999 0.0 2.5018999999999996 6.337299999999999 6.324599999999999 2.5018999999999996 3.1686499999999995 3.3909 4.0259 0.0 6.324599999999999 2.5018999999999996</float_array><technique_common><accessor source="#part10array" count="6" stride="3"><param name="X" type="float" /><param name="Y" type="float" /><param name="Z" type="float" /></accessor></technique_common></source><vertices id="part10verts"><input semantic="POSITION" source="#part10pos" /></vertices><triangles count="8"><input semantic="VERTEX" source="#part10verts" offset="0" /><p>0 1 2 3 4 0 3 0 2 5 4 3 4 5 1 4 1 0 5 3 2 5 2 1</p></triangles></mesh></geometry></library_geometries><library_visual_scenes><visual_scene id="Garage"><node id="part0node" name="South entry door (assumed height)"><instance_geometry url="#part0" /></node><node id="part1node" name="South window (confirmed sill and height)"><instance_geometry url="#part1" /></node><node id="part2node" name="West window 1 (confirmed sill and height)"><instance_geometry url="#part2" /></node><node id="part3node" name="West window 2 (confirmed sill and height)"><instance_geometry url="#part3" /></node><node id="part4node" name="North garage door (assumed height)"><instance_geometry url="#part4" /></node><node id="part5node" name="South window opening"><instance_geometry url="#part5" /></node><node id="part6node" name="North garage door opening"><instance_geometry url="#part6" /></node><node id="part7node" name="East wall"><instance_geometry url="#part7" /></node><node id="part8node" name="West window 2 opening"><instance_geometry url="#part8" /></node><node id="part9node" name="Floor datum surface (no thickness specified)"><instance_geometry url="#part9" /></node><node id="part10node" name="Existing hip roof envelope - 18 inch N-S ridge"><instance_geometry url="#part10" /></node></visual_scene></library_visual_scenes><scene><instance_visual_scene url="#Garage" /></scene></COLLADA>