# Garage existing; metres; X east Y north Z up
o South_entry_door_(assumed_height)
v 2.8321 0.07619999999999999 0.0
v 2.8321 0.1016 2.032
v 2.8321 0.1016 0.0
v 2.8321 0.07619999999999999 2.032
v 3.6449 0.1016 2.032
v 3.6449 0.07619999999999999 0.0
v 3.6449 0.1016 0.0
v 3.6449 0.07619999999999999 2.032
f 1 2 3
f 1 4 2
f 5 6 7
f 8 6 5
f 6 8 1
f 1 8 4
f 5 7 3
f 5 3 2
f 3 7 1
f 1 7 6
f 5 2 4
f 5 4 8
o South_window_(confirmed_sill_and_height)
v 1.0668 0.07619999999999999 1.2191999999999998
v 1.0668 0.1016 1.8288
v 1.0668 0.1016 1.2191999999999998
v 1.0668 0.07619999999999999 1.8288
v 1.778 0.1016 1.8288
v 1.778 0.07619999999999999 1.2191999999999998
v 1.778 0.1016 1.2191999999999998
v 1.778 0.07619999999999999 1.8288
f 9 10 11
f 9 12 10
f 13 14 15
f 16 14 13
f 9 14 12
f 14 16 12
f 15 11 10
f 13 15 10
f 11 14 9
f 11 15 14
f 16 10 12
f 13 10 16
o West_window_1_(confirmed_sill_and_height)
v 0.09525 2.5781 1.2191999999999998
v 0.09525 1.8541999999999998 1.2191999999999998
v 0.09525 2.5781 1.8288
v 0.09525 1.8541999999999998 1.8288
v 0.12065000000000002 1.8541999999999998 1.2191999999999998
v 0.12065000000000002 2.5781 1.2191999999999998
v 0.12065000000000002 2.5781 1.8288
v 0.12065000000000002 1.8541999999999998 1.8288
f 17 18 19
f 18 20 19
f 21 22 23
f 24 21 23
f 21 20 18
f 21 24 20
f 19 22 17
f 23 22 19
f 17 22 18
f 18 22 21
f 23 19 20
f 23 20 24
o West_window_2_(confirmed_sill_and_height)
v 0.09525 4.622799999999999 1.2191999999999998
v 0.09525 3.89255 1.2191999999999998
v 0.09525 4.622799999999999 1.8288
v 0.09525 3.89255 1.8288
v 0.12065000000000002 3.89255 1.2191999999999998
v 0.12065000000000002 4.622799999999999 1.2191999999999998
v 0.12065000000000002 4.622799999999999 1.8288
v 0.12065000000000002 3.89255 1.8288
f 25 26 27
f 26 28 27
f 29 30 31
f 32 29 31
f 29 28 26
f 29 32 28
f 27 30 25
f 31 30 27
f 25 30 26
f 26 30 29
f 31 27 28
f 31 28 32
o North_garage_door_(assumed_height)
v 1.42875 6.223 0.0
v 1.42875 6.223 2.1336
v 1.42875 6.2484 0.0
v 1.42875 6.2484 2.1336
v 5.61975 6.223 2.1336
v 5.61975 6.223 0.0
v 5.61975 6.2484 0.0
v 5.61975 6.2484 2.1336
f 33 34 35
f 35 34 36
f 37 38 39
f 37 39 40
f 38 37 33
f 33 37 34
f 40 39 35
f 40 35 36
f 35 38 33
f 35 39 38
f 37 36 34
f 40 36 37
o South_window_opening
v 0.0 0.0 0.0
v 0.0 0.0 2.5018999999999996
v 0.0 0.15239999999999998 0.0
v 0.0 0.15239999999999998 2.5018999999999996
v 1.0668 0.0 1.2191999999999998
v 2.8321 0.0 0.0
v 1.0668 0.0 1.8288
v 1.778 0.0 1.2191999999999998
v 1.778 0.0 1.8288
v 2.8321 0.0 2.032
v 3.6449 0.0 0.0
v 6.337299999999999 0.0 0.0
v 3.6449 0.0 2.032
v 6.337299999999999 0.0 2.5018999999999996
v 6.337299999999999 0.15239999999999998 2.5018999999999996
v 1.0668 0.15239999999999998 1.2191999999999998
v 2.8321 0.15239999999999998 0.0
v 1.0668 0.15239999999999998 1.8288
v 1.778 0.15239999999999998 1.2191999999999998
v 1.778 0.15239999999999998 1.8288
v 2.8321 0.15239999999999998 2.032
v 6.337299999999999 0.15239999999999998 0.0
v 3.6449 0.15239999999999998 0.0
v 3.6449 0.15239999999999998 2.032
f 41 42 43
f 43 42 44
f 45 42 41
f 41 46 45
f 45 47 42
f 46 48 45
f 47 49 42
f 48 50 49
f 46 50 48
f 49 50 42
f 51 52 53
f 52 54 53
f 54 42 53
f 53 42 50
f 54 44 42
f 55 44 54
f 44 56 43
f 57 43 56
f 58 56 44
f 59 57 56
f 60 58 44
f 61 59 60
f 61 57 59
f 61 60 44
f 62 63 64
f 55 62 64
f 44 55 64
f 44 64 61
f 43 57 41
f 41 57 46
f 50 46 57
f 50 57 61
f 61 64 50
f 50 64 53
f 54 52 62
f 54 62 55
f 51 53 63
f 63 53 64
f 63 62 51
f 51 62 52
f 58 60 47
f 47 60 49
f 48 49 59
f 59 49 60
f 59 56 45
f 59 45 48
f 47 45 56
f 47 56 58
o North_garage_door_opening
v 0.0 6.1213999999999995 0.0
v 0.0 6.1213999999999995 2.5018999999999996
v 0.0 6.324599999999999 0.0
v 0.0 6.324599999999999 2.5018999999999996
v 1.42875 6.1213999999999995 0.0
v 1.42875 6.1213999999999995 2.1336
v 6.337299999999999 6.1213999999999995 0.0
v 5.61975 6.1213999999999995 2.1336
v 5.61975 6.1213999999999995 0.0
v 6.337299999999999 6.1213999999999995 2.5018999999999996
v 6.337299999999999 6.324599999999999 2.5018999999999996
v 1.42875 6.324599999999999 2.1336
v 1.42875 6.324599999999999 0.0
v 5.61975 6.324599999999999 2.1336
v 6.337299999999999 6.324599999999999 0.0
v 5.61975 6.324599999999999 0.0
f 65 66 67
f 67 66 68
f 69 70 65
f 65 70 66
f 71 72 73
f 72 74 70
f 71 74 72
f 74 66 70
f 75 68 66
f 75 66 74
f 76 77 67
f 76 67 68
f 78 79 80
f 75 78 76
f 75 79 78
f 68 75 76
f 67 69 65
f 67 77 69
f 70 69 77
f 70 77 76
f 76 78 70
f 70 78 72
f 73 72 80
f 80 72 78
f 80 79 73
f 73 79 71
f 74 71 79
f 74 79 75
o East_wall
v 6.1849 6.1213999999999995 0.0
v 6.1849 0.15239999999999998 0.0
v 6.1849 6.1213999999999995 2.5018999999999996
v 6.1849 0.15239999999999998 2.5018999999999996
v 6.337299999999999 0.15239999999999998 0.0
v 6.337299999999999 6.1213999999999995 0.0
v 6.337299999999999 6.1213999999999995 2.5018999999999996
v 6.337299999999999 0.15239999999999998 2.5018999999999996
f 81 82 83
f 82 84 83
f 85 86 87
f 88 85 87
f 85 84 82
f 85 88 84
f 83 86 81
f 87 86 83
f 82 81 85
f 81 86 85
f 83 84 88
f 87 83 88
o West_window_2_opening
v 0.0 6.1213999999999995 0.0
v 0.0 4.622799999999999 1.2191999999999998
v 0.0 6.1213999999999995 2.5018999999999996
v 0.0 4.622799999999999 1.8288
v 0.0 3.89255 1.2191999999999998
v 0.0 3.89255 1.8288
v 0.0 2.5781 1.2191999999999998
v 0.0 2.5781 1.8288
v 0.0 0.15239999999999998 0.0
v 0.0 1.8541999999999998 1.2191999999999998
v 0.0 0.15239999999999998 2.5018999999999996
v 0.0 1.8541999999999998 1.8288
v 0.1905 0.15239999999999998 0.0
v 0.1905 0.15239999999999998 2.5018999999999996
v 0.1905 6.1213999999999995 2.5018999999999996
v 0.1905 6.1213999999999995 0.0
v 0.1905 3.89255 1.2191999999999998
v 0.1905 4.622799999999999 1.2191999999999998
v 0.1905 4.622799999999999 1.8288
v 0.1905 3.89255 1.8288
v 0.1905 2.5781 1.2191999999999998
v 0.1905 1.8541999999999998 1.2191999999999998
v 0.1905 2.5781 1.8288
v 0.1905 1.8541999999999998 1.8288
f 89 90 91
f 90 92 91
f 89 93 90
f 92 94 91
f 89 95 93
f 93 96 94
f 95 96 93
f 95 97 98
f 89 97 95
f 98 99 100
f 100 99 96
f 97 99 98
f 99 91 96
f 96 91 94
f 101 99 97
f 101 102 99
f 103 91 99
f 103 99 102
f 89 104 97
f 97 104 101
f 91 104 89
f 103 104 91
f 90 93 105
f 106 90 105
f 106 107 90
f 90 107 92
f 94 92 108
f 92 107 108
f 108 105 93
f 108 93 94
f 109 95 98
f 109 98 110
f 109 111 95
f 95 111 96
f 112 110 98
f 112 98 100
f 96 111 100
f 100 111 112
f 106 104 103
f 107 106 103
f 105 104 106
f 108 107 103
f 109 104 105
f 111 105 108
f 111 109 105
f 101 109 110
f 101 104 109
f 102 110 112
f 102 112 111
f 102 101 110
f 103 102 111
f 103 111 108
o Floor_datum_surface_(no_thickness_specified)
v 6.337299999999999 6.324599999999999 0.0
v 0.0 0.0 0.0
v 6.337299999999999 0.0 0.0
v 0.0 6.324599999999999 0.0
f 113 114 115
f 113 116 114
o Existing_hip_roof_envelope_-_18_inch_N-S_ridge
v 3.1686499999999995 2.9337 4.0259
v 0.0 0.0 2.5018999999999996
v 6.337299999999999 0.0 2.5018999999999996
v 6.337299999999999 6.324599999999999 2.5018999999999996
v 3.1686499999999995 3.3909 4.0259
v 0.0 6.324599999999999 2.5018999999999996
f 117 118 119
f 120 121 117
f 120 117 119
f 122 121 120
f 121 122 118
f 121 118 117
f 122 120 119
f 122 119 118
