<?xml version="1.0" encoding="utf-8" standalone="no"?>
<!DOCTYPE svg PUBLIC "-//W3C//DTD SVG 1.1//EN"
  "http://www.w3.org/Graphics/SVG/1.1/DTD/svg11.dtd">
<svg xmlns:xlink="http://www.w3.org/1999/xlink" width="1224pt" height="792pt" viewBox="0 0 1224 792" xmlns="http://www.w3.org/2000/svg" version="1.1">
 <metadata>
  <rdf:RDF xmlns:dc="http://purl.org/dc/elements/1.1/" xmlns:cc="http://creativecommons.org/ns#" xmlns:rdf="http://www.w3.org/1999/02/22-rdf-syntax-ns#">
   <cc:Work>
    <dc:type rdf:resource="http://purl.org/dc/dcmitype/StillImage"/>
    <dc:date>2026-09-08T15:24:12.548622</dc:date>
    <dc:format>image/svg+xml</dc:format>
    <dc:creator>
     <cc:Agent>
      <dc:title>Matplotlib v3.10.8, https://matplotlib.org/</dc:title>
     </cc:Agent>
    </dc:creator>
   </cc:Work>
  </rdf:RDF>
 </metadata>
 <defs>
  <style type="text/css">*{stroke-linejoin: round; stroke-linecap: butt}</style>
 </defs>
 <g id="figure_1">
  <g id="patch_1">
   <path d="M 0 792 
L 1224 792 
L 1224 0 
L 0 0 
z
" style="fill: #ffffff"/>
  </g>
  <g id="axes_1">
   <g id="patch_2">
    <path d="M 867.5283 451.964909 
L 261.956608 451.964909 
L 261.956608 460.066202 
L 867.5283 460.066202 
z
" clip-path="url(#p24b5be9628)" style="fill: #a25b32; stroke: #a25b32; stroke-width: 0.3; stroke-linejoin: miter"/>
   </g>
   <g id="patch_3">
    <path d="M 867.5283 231.492935 
L 261.956608 231.492935 
L 261.956608 239.594229 
L 867.5283 239.594229 
z
" clip-path="url(#p24b5be9628)" style="fill: #a25b32; stroke: #a25b32; stroke-width: 0.3; stroke-linejoin: miter"/>
   </g>
   <g id="patch_4">
    <path d="M 257.905961 456.015555 
L 266.007255 456.015555 
L 266.007255 235.543582 
L 257.905961 235.543582 
z
" clip-path="url(#p24b5be9628)" style="fill: #a25b32; stroke: #a25b32; stroke-width: 0.3; stroke-linejoin: miter"/>
   </g>
   <g id="patch_5">
    <path d="M 358.834577 456.015555 
L 366.93587 456.015555 
L 366.93587 235.543582 
L 358.834577 235.543582 
z
" clip-path="url(#p24b5be9628)" style="fill: #a25b32; stroke: #a25b32; stroke-width: 0.3; stroke-linejoin: miter"/>
   </g>
   <g id="patch_6">
    <path d="M 459.763192 456.015555 
L 467.864486 456.015555 
L 467.864486 235.543582 
L 459.763192 235.543582 
z
" clip-path="url(#p24b5be9628)" style="fill: #a25b32; stroke: #a25b32; stroke-width: 0.3; stroke-linejoin: miter"/>
   </g>
   <g id="patch_7">
    <path d="M 560.691808 456.015555 
L 568.793101 456.015555 
L 568.793101 235.543582 
L 560.691808 235.543582 
z
" clip-path="url(#p24b5be9628)" style="fill: #a25b32; stroke: #a25b32; stroke-width: 0.3; stroke-linejoin: miter"/>
   </g>
   <g id="patch_8">
    <path d="M 661.620423 456.015555 
L 669.721716 456.015555 
L 669.721716 235.543582 
L 661.620423 235.543582 
z
" clip-path="url(#p24b5be9628)" style="fill: #a25b32; stroke: #a25b32; stroke-width: 0.3; stroke-linejoin: miter"/>
   </g>
   <g id="patch_9">
    <path d="M 762.549038 456.015555 
L 770.650332 456.015555 
L 770.650332 235.543582 
L 762.549038 235.543582 
z
" clip-path="url(#p24b5be9628)" style="fill: #a25b32; stroke: #a25b32; stroke-width: 0.3; stroke-linejoin: miter"/>
   </g>
   <g id="patch_10">
    <path d="M 863.477654 456.015555 
L 871.578947 456.015555 
L 871.578947 235.543582 
L 863.477654 235.543582 
z
" clip-path="url(#p24b5be9628)" style="fill: #a25b32; stroke: #a25b32; stroke-width: 0.3; stroke-linejoin: miter"/>
   </g>
   <g id="patch_11">
    <path d="M 258.887387 454.610514 
L 265.02583 457.420597 
L 365.954445 236.948624 
L 359.816002 234.138541 
z
" clip-path="url(#p24b5be9628)" style="fill: #a25b32; stroke: #a25b32; stroke-width: 0.3; stroke-linejoin: miter"/>
   </g>
   <g id="patch_12">
    <path d="M 763.530463 236.948624 
L 864.459079 457.420597 
L 870.597522 454.610514 
L 769.668907 234.138541 
z
" clip-path="url(#p24b5be9628)" style="fill: #a25b32; stroke: #a25b32; stroke-width: 0.3; stroke-linejoin: miter"/>
   </g>
   <g id="patch_13">
    <path d="M 354.78393 249.045738 
L 370.986517 249.045738 
L 370.986517 232.843151 
L 354.78393 232.843151 
z
" clip-path="url(#p24b5be9628)" style="fill: #a25b32; stroke: #a25b32; stroke-width: 0.3; stroke-linejoin: miter"/>
   </g>
   <g id="patch_14">
    <path d="M 455.712545 249.045738 
L 471.915132 249.045738 
L 471.915132 232.843151 
L 455.712545 232.843151 
z
" clip-path="url(#p24b5be9628)" style="fill: #a25b32; stroke: #a25b32; stroke-width: 0.3; stroke-linejoin: miter"/>
   </g>
   <g id="patch_15">
    <path d="M 556.641161 249.045738 
L 572.843748 249.045738 
L 572.843748 232.843151 
L 556.641161 232.843151 
z
" clip-path="url(#p24b5be9628)" style="fill: #a25b32; stroke: #a25b32; stroke-width: 0.3; stroke-linejoin: miter"/>
   </g>
   <g id="patch_16">
    <path d="M 657.569776 249.045738 
L 673.772363 249.045738 
L 673.772363 232.843151 
L 657.569776 232.843151 
z
" clip-path="url(#p24b5be9628)" style="fill: #a25b32; stroke: #a25b32; stroke-width: 0.3; stroke-linejoin: miter"/>
   </g>
   <g id="patch_17">
    <path d="M 758.498392 249.045738 
L 774.700979 249.045738 
L 774.700979 232.843151 
L 758.498392 232.843151 
z
" clip-path="url(#p24b5be9628)" style="fill: #a25b32; stroke: #a25b32; stroke-width: 0.3; stroke-linejoin: miter"/>
   </g>
   <g id="line2d_1">
    <path d="M 229.551434 460.066202 
L 994.448566 460.066202 
" clip-path="url(#p24b5be9628)" style="fill: none; stroke: #65747a; stroke-width: 0.7; stroke-linecap: square"/>
   </g>
   <g id="patch_18">
    <path d="M 359.991813 193.686899 
Q 312.422254 193.686899 264.852694 193.686899 
" style="fill: none; stroke: #65747a; stroke-width: 0.8; stroke-linecap: round"/>
    <path d="M 355.991813 191.686899 
L 359.991813 193.686899 
L 355.991813 195.686899 
" style="fill: none; stroke: #65747a; stroke-width: 0.8; stroke-linecap: round"/>
    <path d="M 268.852694 195.686899 
L 264.852694 193.686899 
L 268.852694 191.686899 
" style="fill: none; stroke: #65747a; stroke-width: 0.8; stroke-linecap: round"/>
   </g>
   <g id="text_1">
    <g id="patch_19">
     <path d="M 294.620135 200.525961 
L 330.221697 200.525961 
L 330.221697 186.847836 
L 294.620135 186.847836 
z
" style="fill: #ffffff"/>
    </g>
    <text style="font-size: 10px; font-family: 'DejaVu Sans'; text-anchor: middle; fill: #65747a" x="312.420916" y="196.446274" transform="rotate(-0 312.420916 196.446274)">3′ 1⅜″</text>
   </g>
   <g id="patch_20">
    <path d="M 460.920429 193.686899 
Q 413.350869 193.686899 365.781309 193.686899 
" style="fill: none; stroke: #65747a; stroke-width: 0.8; stroke-linecap: round"/>
    <path d="M 456.920429 191.686899 
L 460.920429 193.686899 
L 456.920429 195.686899 
" style="fill: none; stroke: #65747a; stroke-width: 0.8; stroke-linecap: round"/>
    <path d="M 369.781309 195.686899 
L 365.781309 193.686899 
L 369.781309 191.686899 
" style="fill: none; stroke: #65747a; stroke-width: 0.8; stroke-linecap: round"/>
   </g>
   <g id="text_2">
    <g id="patch_21">
     <path d="M 395.54875 200.525961 
L 431.150313 200.525961 
L 431.150313 186.847836 
L 395.54875 186.847836 
z
" style="fill: #ffffff"/>
    </g>
    <text style="font-size: 10px; font-family: 'DejaVu Sans'; text-anchor: middle; fill: #65747a" x="413.349531" y="196.446274" transform="rotate(-0 413.349531 196.446274)">3′ 1⅜″</text>
   </g>
   <g id="patch_22">
    <path d="M 561.849044 193.686899 
Q 514.279484 193.686899 466.709925 193.686899 
" style="fill: none; stroke: #65747a; stroke-width: 0.8; stroke-linecap: round"/>
    <path d="M 557.849044 191.686899 
L 561.849044 193.686899 
L 557.849044 195.686899 
" style="fill: none; stroke: #65747a; stroke-width: 0.8; stroke-linecap: round"/>
    <path d="M 470.709925 195.686899 
L 466.709925 193.686899 
L 470.709925 191.686899 
" style="fill: none; stroke: #65747a; stroke-width: 0.8; stroke-linecap: round"/>
   </g>
   <g id="text_3">
    <g id="patch_23">
     <path d="M 496.477365 200.525961 
L 532.078928 200.525961 
L 532.078928 186.847836 
L 496.477365 186.847836 
z
" style="fill: #ffffff"/>
    </g>
    <text style="font-size: 10px; font-family: 'DejaVu Sans'; text-anchor: middle; fill: #65747a" x="514.278147" y="196.446274" transform="rotate(-0 514.278147 196.446274)">3′ 1⅜″</text>
   </g>
   <g id="patch_24">
    <path d="M 662.77766 193.686899 
Q 615.2081 193.686899 567.63854 193.686899 
" style="fill: none; stroke: #65747a; stroke-width: 0.8; stroke-linecap: round"/>
    <path d="M 658.77766 191.686899 
L 662.77766 193.686899 
L 658.77766 195.686899 
" style="fill: none; stroke: #65747a; stroke-width: 0.8; stroke-linecap: round"/>
    <path d="M 571.63854 195.686899 
L 567.63854 193.686899 
L 571.63854 191.686899 
" style="fill: none; stroke: #65747a; stroke-width: 0.8; stroke-linecap: round"/>
   </g>
   <g id="text_4">
    <g id="patch_25">
     <path d="M 597.405981 200.525961 
L 633.007543 200.525961 
L 633.007543 186.847836 
L 597.405981 186.847836 
z
" style="fill: #ffffff"/>
    </g>
    <text style="font-size: 10px; font-family: 'DejaVu Sans'; text-anchor: middle; fill: #65747a" x="615.206762" y="196.446274" transform="rotate(-0 615.206762 196.446274)">3′ 1⅜″</text>
   </g>
   <g id="patch_26">
    <path d="M 763.706275 193.686899 
Q 716.136715 193.686899 668.567155 193.686899 
" style="fill: none; stroke: #65747a; stroke-width: 0.8; stroke-linecap: round"/>
    <path d="M 759.706275 191.686899 
L 763.706275 193.686899 
L 759.706275 195.686899 
" style="fill: none; stroke: #65747a; stroke-width: 0.8; stroke-linecap: round"/>
    <path d="M 672.567155 195.686899 
L 668.567155 193.686899 
L 672.567155 191.686899 
" style="fill: none; stroke: #65747a; stroke-width: 0.8; stroke-linecap: round"/>
   </g>
   <g id="text_5">
    <g id="patch_27">
     <path d="M 698.334596 200.525961 
L 733.936159 200.525961 
L 733.936159 186.847836 
L 698.334596 186.847836 
z
" style="fill: #ffffff"/>
    </g>
    <text style="font-size: 10px; font-family: 'DejaVu Sans'; text-anchor: middle; fill: #65747a" x="716.135377" y="196.446274" transform="rotate(-0 716.135377 196.446274)">3′ 1⅜″</text>
   </g>
   <g id="patch_28">
    <path d="M 864.63489 193.686899 
Q 817.065331 193.686899 769.495771 193.686899 
" style="fill: none; stroke: #65747a; stroke-width: 0.8; stroke-linecap: round"/>
    <path d="M 860.63489 191.686899 
L 864.63489 193.686899 
L 860.63489 195.686899 
" style="fill: none; stroke: #65747a; stroke-width: 0.8; stroke-linecap: round"/>
    <path d="M 773.495771 195.686899 
L 769.495771 193.686899 
L 773.495771 191.686899 
" style="fill: none; stroke: #65747a; stroke-width: 0.8; stroke-linecap: round"/>
   </g>
   <g id="text_6">
    <g id="patch_29">
     <path d="M 799.263212 200.525961 
L 834.864774 200.525961 
L 834.864774 186.847836 
L 799.263212 186.847836 
z
" style="fill: #ffffff"/>
    </g>
    <text style="font-size: 10px; font-family: 'DejaVu Sans'; text-anchor: middle; fill: #65747a" x="817.063993" y="196.446274" transform="rotate(-0 817.063993 196.446274)">3′ 1⅜″</text>
   </g>
   <g id="patch_30">
    <path d="M 864.63335 514.074826 
Q 564.743755 514.074826 264.854159 514.074826 
" style="fill: none; stroke: #65747a; stroke-width: 0.8; stroke-linecap: round"/>
    <path d="M 860.63335 512.074826 
L 864.63335 514.074826 
L 860.63335 516.074826 
" style="fill: none; stroke: #65747a; stroke-width: 0.8; stroke-linecap: round"/>
    <path d="M 268.854159 516.074826 
L 264.854159 514.074826 
L 268.854159 512.074826 
" style="fill: none; stroke: #65747a; stroke-width: 0.8; stroke-linecap: round"/>
   </g>
   <g id="text_7">
    <g id="patch_31">
     <path d="M 475.753392 520.913888 
L 653.731517 520.913888 
L 653.731517 507.235763 
L 475.753392 507.235763 
z
" style="fill: #ffffff"/>
    </g>
    <text style="font-size: 10px; font-family: 'DejaVu Sans'; text-anchor: middle; fill: #65747a" x="564.742454" y="516.834201" transform="rotate(-0 564.742454 516.834201)">18′ 8¼″ overall framing-line length</text>
   </g>
   <g id="patch_32">
    <path d="M 910.735199 234.385844 
Q 910.735199 345.777934 910.735199 457.170023 
" style="fill: none; stroke: #65747a; stroke-width: 0.8; stroke-linecap: round"/>
    <path d="M 908.735199 238.385844 
L 910.735199 234.385844 
L 912.735199 238.385844 
" style="fill: none; stroke: #65747a; stroke-width: 0.8; stroke-linecap: round"/>
    <path d="M 912.735199 453.170023 
L 910.735199 457.170023 
L 908.735199 453.170023 
" style="fill: none; stroke: #65747a; stroke-width: 0.8; stroke-linecap: round"/>
   </g>
   <g id="text_8">
    <text style="font-size: 10px; font-family: 'DejaVu Sans'; fill: #65747a" transform="translate(932.397593 405.888163) rotate(-90)">7′ 0⅝″ maximum height</text>
   </g>
  </g>
  <g id="text_9">
   <text style="font-weight: 700; font-size: 24px; font-family: 'DejaVu Sans'; text-anchor: start; fill: #253744" x="73.44" y="55.44" transform="rotate(-0 73.44 55.44)">T1 · TRUSS ELEVATION</text>
  </g>
  <g id="text_10">
   <text style="font-size: 11px; font-family: 'DejaVu Sans'; text-anchor: start; fill: #65747a" x="73.44" y="91.872" transform="rotate(-0 73.44 91.872)">West → east · dimensions along the framing line · member layout projected directly from the current 3D model</text>
  </g>
  <g id="text_11">
   <text style="font-weight: 700; font-size: 12px; font-family: 'DejaVu Sans'; text-anchor: start; fill: #a25b32" x="73.44" y="580.536" transform="rotate(-0 73.44 580.536)">COMMON BOTTOM = 8′ 2½″ ABOVE GROUND · COLUMN-SUPPORTED</text>
  </g>
  <g id="text_12">
   <text style="font-size: 10px; font-family: 'DejaVu Sans'; fill: #354952" transform="translate(73.44 623.774437)">Six equal panel bays; dimensions are centerline spacing, not clear openings.</text>
   <text style="font-size: 10px; font-family: 'DejaVu Sans'; fill: #354952" transform="translate(73.44 638.771469)">Model layout: verticals throughout; diagonals in the two end bays; central storage bays open.</text>
   <text style="font-size: 10px; font-family: 'DejaVu Sans'; fill: #354952" transform="translate(73.44 653.7685)">At station 69¾″ north of south wall.</text>
   <text style="font-size: 10px; font-family: 'DejaVu Sans'; fill: #354952" transform="translate(73.44 668.765531)">End-braced rectangles require engineered moment joints / Vierendeel action; web layout is illustrative.</text>
  </g>
  <g id="text_13">
   <text style="font-size: 10px; font-family: 'DejaVu Sans'; fill: #65747a" transform="translate(73.44 726.282812)">Concept geometry, not fabrication drawings. Member sizes, joints, bracing and bearing details require design.</text>
   <text style="font-size: 10px; font-family: 'DejaVu Sans'; fill: #65747a" transform="translate(73.44 740.52)">The shallow hip roof cap sits above the rear ceiling datum; its internal framing has not been laid out.</text>
  </g>
 </g>
 <defs>
  <clipPath id="p24b5be9628">
   <rect x="229.551434" y="150.48" width="764.897132" height="396"/>
  </clipPath>
 </defs>
</svg>
