# STR-006 rev 0 2026-09-15 draft; units inches; X east Y north Z up
# Proposed solids and unsized reference lines only. No existing walls or historical baseline.
o T-E.bottom.0
v 210 -64 101.5
v 213 -64 101.5
v 213 -64 98.5
v 210 -64 98.5
v 210 269 101.5
v 213 269 101.5
v 213 269 98.5
v 210 269 98.5
f 1 4 3 2
f 5 6 7 8
f 1 2 6 5
f 2 3 7 6
f 3 4 8 7
f 4 1 5 8
o T-E.upright.7
v 213 267.5 100
v 213 270.5 100
v 210 270.5 100
v 210 267.5 100
v 213 267.5 225.75
v 213 270.5 225.75
v 210 270.5 225.75
v 210 267.5 225.75
f 9 12 11 10
f 13 14 15 16
f 9 10 14 13
f 10 11 15 14
f 11 12 16 15
f 12 9 13 16
o T-E.web.4
v 212.75 124.76424 100.188141
v 212.75 127.23576 99.8118585
v 210.25 127.23576 99.8118585
v 210.25 124.76424 100.188141
v 212.75 143.909375 225.938141
v 212.75 146.380895 225.561859
v 210.25 146.380895 225.561859
v 210.25 143.909375 225.938141
f 17 20 19 18
f 21 22 23 24
f 17 18 22 21
f 18 19 23 22
f 19 20 24 23
f 20 17 21 24
o T-E.top.0
v 210 -64.75 106.299038
v 213 -64.75 106.299038
v 213 -63.25 103.700962
v 210 -63.25 103.700962
v 210 -2.75 142.094755
v 213 -2.75 142.094755
v 213 -1.25 139.496679
v 210 -1.25 139.496679
f 25 28 27 26
f 29 30 31 32
f 25 26 30 29
f 26 27 31 30
f 27 28 32 31
f 28 25 29 32
o T-E.top.3
v 210 69 183.519637
v 213 69 183.519637
v 213 70.5 180.92156
v 210 70.5 180.92156
v 210 125.25 215.995589
v 213 125.25 215.995589
v 213 126.75 213.397513
v 210 126.75 213.397513
f 33 36 35 34
f 37 38 39 40
f 33 34 38 37
f 34 35 39 38
f 35 36 40 39
f 36 33 37 40
o T-E.top.4
v 210 125.25 215.995589
v 213 125.25 215.995589
v 213 126.75 213.397513
v 210 126.75 213.397513
v 210 144.395135 227.049038
v 213 144.395135 227.049038
v 213 145.895135 224.450962
v 210 145.895135 224.450962
f 41 44 43 42
f 45 46 47 48
f 41 42 46 45
f 42 43 47 46
f 43 44 48 47
f 44 41 45 48
o T-E.top.6
v 210 185 227.25
v 213 185 227.25
v 213 185 224.25
v 210 185 224.25
v 210 269 227.25
v 213 269 227.25
v 213 269 224.25
v 210 269 224.25
f 49 52 51 50
f 53 54 55 56
f 49 50 54 53
f 50 51 55 54
f 51 52 56 55
f 52 49 53 56
o T-E.upright.3
v 213 68.25 100
v 213 71.25 100
v 210 71.25 100
v 210 68.25 100
v 213 68.25 182.220599
v 213 71.25 182.220599
v 210 71.25 182.220599
v 210 68.25 182.220599
f 57 60 59 58
f 61 62 63 64
f 57 58 62 61
f 58 59 63 62
f 59 60 64 63
f 60 57 61 64
o T-E.upright.6
v 213 183.5 100
v 213 186.5 100
v 210 186.5 100
v 210 183.5 100
v 213 183.5 225.75
v 213 186.5 225.75
v 210 186.5 225.75
v 210 183.5 225.75
f 65 68 67 66
f 69 70 71 72
f 65 66 70 69
f 66 67 71 70
f 67 68 72 71
f 68 65 69 72
o T-E.upright.2
v 213 -1.5 100
v 213 1.5 100
v 210 1.5 100
v 210 -1.5 100
v 213 -1.5 141.950417
v 213 1.5 141.950417
v 210 1.5 141.950417
v 210 -1.5 141.950417
f 73 76 75 74
f 77 78 79 80
f 73 74 78 77
f 74 75 79 78
f 75 76 80 79
f 76 73 77 80
o T-E.upright.4
v 213 124.5 100
v 213 127.5 100
v 210 127.5 100
v 210 124.5 100
v 213 124.5 214.696551
v 213 127.5 214.696551
v 210 127.5 214.696551
v 210 124.5 214.696551
f 81 84 83 82
f 85 86 87 88
f 81 82 86 85
f 82 83 87 86
f 83 84 88 87
f 84 81 85 88
o T-E.web.2
v 210.25 -0.953210377 100.808635
v 212.75 -0.953210377 100.808635
v 212.75 0.953210377 99.1913654
v 210.25 0.953210377 99.1913654
v 210.25 68.7967896 183.029233
v 212.75 68.7967896 183.029233
v 212.75 70.7032104 181.411964
v 210.25 70.7032104 181.411964
f 89 92 91 90
f 93 94 95 96
f 89 90 94 93
f 90 91 95 94
f 91 92 96 95
f 92 89 93 96
o T-E.top.2
v 210 -0.75 143.249455
v 213 -0.75 143.249455
v 213 0.75 140.651379
v 210 0.75 140.651379
v 210 69 183.519637
v 213 69 183.519637
v 213 70.5 180.92156
v 210 70.5 180.92156
f 97 100 99 98
f 101 102 103 104
f 97 98 102 101
f 98 99 103 102
f 99 100 104 103
f 100 97 101 104
o T-E.top.1
v 210 -2.75 142.094755
v 213 -2.75 142.094755
v 213 -1.25 139.496679
v 210 -1.25 139.496679
v 210 -0.75 143.249455
v 213 -0.75 143.249455
v 213 0.75 140.651379
v 210 0.75 140.651379
f 105 108 107 106
f 109 110 111 112
f 105 106 110 109
f 106 107 111 110
f 107 108 112 111
f 108 105 109 112
o T-E.web.0
v 210.25 -64.687094 101.044223
v 212.75 -64.687094 101.044223
v 212.75 -63.312906 98.9557769
v 210.25 -63.312906 98.9557769
v 210.25 -2.68709401 141.83994
v 212.75 -2.68709401 141.83994
v 212.75 -1.31290599 139.751494
v 210.25 -1.31290599 139.751494
f 113 116 115 114
f 117 118 119 120
f 113 114 118 117
f 114 115 119 118
f 115 116 120 119
f 116 113 117 120
o T-E.web.1
v 212.75 -3.24858183 100.059527
v 212.75 -0.751418169 99.9404734
v 210.25 -0.751418169 99.9404734
v 210.25 -3.24858183 100.059527
v 212.75 -1.24858183 142.009944
v 212.75 1.24858183 141.890891
v 210.25 1.24858183 141.890891
v 210.25 -1.24858183 142.009944
f 121 124 123 122
f 125 126 127 128
f 121 122 126 125
f 122 123 127 126
f 123 124 128 127
f 124 121 125 128
o T-E.web.3
v 210.25 68.6277004 100.550403
v 212.75 68.6277004 100.550403
v 212.75 70.8722996 99.4495968
v 210.25 70.8722996 99.4495968
v 210.25 124.8777 215.246954
v 212.75 124.8777 215.246954
v 212.75 127.1223 214.146148
v 210.25 127.1223 214.146148
f 129 132 131 130
f 133 134 135 136
f 129 130 134 133
f 130 131 135 134
f 131 132 136 135
f 132 129 133 136
o T-E.web.5
v 212.75 143.95355 100.377658
v 212.75 146.33672 99.6223423
v 210.25 146.33672 99.6223423
v 210.25 143.95355 100.377658
v 212.75 183.808415 226.127658
v 212.75 186.191585 225.372342
v 210.25 186.191585 225.372342
v 210.25 183.808415 226.127658
f 137 140 139 138
f 141 142 143 144
f 137 138 142 141
f 138 139 143 142
f 139 140 144 143
f 140 137 141 144
o T-E.upright.1
v 213 -3.5 100
v 213 -0.5 100
v 210 -0.5 100
v 210 -3.5 100
v 213 -3.5 140.795717
v 213 -0.5 140.795717
v 210 -0.5 140.795717
v 210 -3.5 140.795717
f 145 148 147 146
f 149 150 151 152
f 145 146 150 149
f 146 147 151 150
f 147 148 152 151
f 148 145 149 152
o T-E.upright.0
v 213 -65.5 100
v 213 -62.5 100
v 210 -62.5 100
v 210 -65.5 100
v 213 -65.5 105
v 213 -62.5 105
v 210 -62.5 105
v 210 -65.5 105
f 153 156 155 154
f 157 158 159 160
f 153 154 158 157
f 154 155 159 158
f 155 156 160 159
f 156 153 157 160
o T-E.upright.5
v 213 143.645135 100
v 213 146.645135 100
v 210 146.645135 100
v 210 143.645135 100
v 213 143.645135 225.75
v 213 146.645135 225.75
v 210 146.645135 225.75
v 210 143.645135 225.75
f 161 164 163 162
f 165 166 167 168
f 161 162 166 165
f 162 163 167 166
f 163 164 168 167
f 164 161 165 168
o T-E.web.6
v 210.25 183.960573 100.694329
v 212.75 183.960573 100.694329
v 212.75 186.039427 99.3056713
v 210.25 186.039427 99.3056713
v 210.25 267.960573 226.444329
v 212.75 267.960573 226.444329
v 212.75 270.039427 225.055671
v 210.25 270.039427 225.055671
f 169 172 171 170
f 173 174 175 176
f 169 170 174 173
f 170 171 175 174
f 171 172 176 175
f 172 169 173 176
o T-E.top.5
v 210 145.145135 227.25
v 213 145.145135 227.25
v 213 145.145135 224.25
v 210 145.145135 224.25
v 210 185 227.25
v 213 185 227.25
v 213 185 224.25
v 210 185 224.25
f 177 180 179 178
f 181 182 183 184
f 177 178 182 181
f 178 179 183 182
f 179 180 184 183
f 180 177 181 184
o T-N.header_vertical.6
v 151.375 267.75 203.25
v 151.375 270.25 203.25
v 148.875 270.25 203.25
v 148.875 267.75 203.25
v 151.375 267.75 225.75
v 151.375 270.25 225.75
v 148.875 270.25 225.75
v 148.875 267.75 225.75
f 185 188 187 186
f 189 190 191 192
f 185 186 190 189
f 186 187 191 190
f 187 188 192 191
f 188 185 189 192
o T-N.door_header.0
v 81.5 270.5 194.25
v 81.5 267.5 194.25
v 81.5 267.5 191.25
v 81.5 270.5 191.25
v 113.5 270.5 194.25
v 113.5 267.5 194.25
v 113.5 267.5 191.25
v 113.5 270.5 191.25
f 193 196 195 194
f 197 198 199 200
f 193 194 198 197
f 194 195 199 198
f 195 196 200 199
f 196 193 197 200
o T-N.upright.4
v 213 267.5 100
v 213 270.5 100
v 210 270.5 100
v 210 267.5 100
v 213 267.5 225.75
v 213 270.5 225.75
v 210 270.5 225.75
v 210 267.5 225.75
f 201 204 203 202
f 205 206 207 208
f 201 202 206 205
f 202 203 207 206
f 203 204 208 207
f 204 201 205 208
o T-N.header_vertical.1
v -2.0625 267.75 203.25
v -2.0625 270.25 203.25
v -4.5625 270.25 203.25
v -4.5625 267.75 203.25
v -2.0625 267.75 225.75
v -2.0625 270.25 225.75
v -4.5625 270.25 225.75
v -4.5625 267.75 225.75
f 209 212 211 210
f 213 214 215 216
f 209 210 214 213
f 210 211 215 214
f 211 212 216 215
f 212 209 213 216
o T-N.header_brace.6
v 149.385884 270.25 204.258072
v 149.385884 267.75 204.258072
v 150.864116 267.75 202.241928
v 150.864116 270.25 202.241928
v 180.073384 270.25 226.758072
v 180.073384 267.75 226.758072
v 181.551616 267.75 224.741928
v 181.551616 270.25 224.741928
f 217 220 219 218
f 221 222 223 224
f 217 218 222 221
f 218 219 223 222
f 219 220 224 223
f 220 217 221 224
o T-N.header_brace.1
v -2.57338443 270.25 226.758072
v -2.57338443 267.75 226.758072
v -4.05161557 267.75 224.741928
v -4.05161557 270.25 224.741928
v 28.1141156 270.25 204.258072
v 28.1141156 267.75 204.258072
v 26.6358844 267.75 202.241928
v 26.6358844 270.25 202.241928
f 225 228 227 226
f 229 230 231 232
f 225 226 230 229
f 226 227 231 230
f 227 228 232 231
f 228 225 229 232
o T-N.header_vertical.3
v 59.3125 267.75 203.25
v 59.3125 270.25 203.25
v 56.8125 270.25 203.25
v 56.8125 267.75 203.25
v 59.3125 267.75 225.75
v 59.3125 270.25 225.75
v 56.8125 270.25 225.75
v 56.8125 267.75 225.75
f 233 236 235 234
f 237 238 239 240
f 233 234 238 237
f 234 235 239 238
f 235 236 240 239
f 236 233 237 240
o T-N.header_vertical.5
v 120.6875 267.75 203.25
v 120.6875 270.25 203.25
v 118.1875 270.25 203.25
v 118.1875 267.75 203.25
v 120.6875 267.75 225.75
v 120.6875 270.25 225.75
v 118.1875 270.25 225.75
v 118.1875 267.75 225.75
f 241 244 243 242
f 245 246 247 248
f 241 242 246 245
f 242 243 247 246
f 243 244 248 247
f 244 241 245 248
o T-N.header_brace.3
v 58.8016156 270.25 226.758072
v 58.8016156 267.75 226.758072
v 57.3233844 267.75 224.741928
v 57.3233844 270.25 224.741928
v 89.4891156 270.25 204.258072
v 89.4891156 267.75 204.258072
v 88.0108844 267.75 202.241928
v 88.0108844 270.25 202.241928
f 249 252 251 250
f 253 254 255 256
f 249 250 254 253
f 250 251 255 254
f 251 252 256 255
f 252 249 253 256
o T-N.header_brace.4
v 88.0108844 270.25 204.258072
v 88.0108844 267.75 204.258072
v 89.4891156 267.75 202.241928
v 89.4891156 270.25 202.241928
v 118.698384 270.25 226.758072
v 118.698384 267.75 226.758072
v 120.176616 267.75 224.741928
v 120.176616 270.25 224.741928
f 257 260 259 258
f 261 262 263 264
f 257 258 262 261
f 258 259 263 262
f 259 260 264 263
f 260 257 261 264
o T-N.header_brace.7
v 181.551616 270.25 226.758072
v 181.551616 267.75 226.758072
v 180.073384 267.75 224.741928
v 180.073384 270.25 224.741928
v 212.239116 270.25 204.258072
v 212.239116 267.75 204.258072
v 210.760884 267.75 202.241928
v 210.760884 270.25 202.241928
f 265 268 267 266
f 269 270 271 272
f 265 266 270 269
f 266 267 271 270
f 267 268 272 271
f 268 265 269 272
o T-N.header_lower.0
v -34 270.5 204.75
v -34 267.5 204.75
v -34 267.5 201.75
v -34 270.5 201.75
v 211.5 270.5 204.75
v 211.5 267.5 204.75
v 211.5 267.5 201.75
v 211.5 270.5 201.75
f 273 276 275 274
f 277 278 279 280
f 273 274 278 277
f 274 275 279 278
f 275 276 280 279
f 276 273 277 280
o T-N.upright.0
v -32.5 267.5 100
v -32.5 270.5 100
v -35.5 270.5 100
v -35.5 267.5 100
v -32.5 267.5 225.75
v -32.5 270.5 225.75
v -35.5 270.5 225.75
v -35.5 267.5 225.75
f 281 284 283 282
f 285 286 287 288
f 281 282 286 285
f 282 283 287 286
f 283 284 288 287
f 284 281 285 288
o T-N.upright.1
v 21 267.5 100
v 21 270.5 100
v 18 270.5 100
v 18 267.5 100
v 21 267.5 225.75
v 21 270.5 225.75
v 18 270.5 225.75
v 18 267.5 225.75
f 289 292 291 290
f 293 294 295 296
f 289 290 294 293
f 290 291 295 294
f 291 292 296 295
f 292 289 293 296
o T-N.header_brace.2
v 26.6358844 270.25 204.258072
v 26.6358844 267.75 204.258072
v 28.1141156 267.75 202.241928
v 28.1141156 270.25 202.241928
v 57.3233844 270.25 226.758072
v 57.3233844 267.75 226.758072
v 58.8016156 267.75 224.741928
v 58.8016156 270.25 224.741928
f 297 300 299 298
f 301 302 303 304
f 297 298 302 301
f 298 299 303 302
f 299 300 304 303
f 300 297 301 304
o T-N.header_vertical.0
v -32.75 267.75 203.25
v -32.75 270.25 203.25
v -35.25 270.25 203.25
v -35.25 267.75 203.25
v -32.75 267.75 225.75
v -32.75 270.25 225.75
v -35.25 270.25 225.75
v -35.25 267.75 225.75
f 305 308 307 306
f 309 310 311 312
f 305 306 310 309
f 306 307 311 310
f 307 308 312 311
f 308 305 309 312
o T-N.header_brace.5
v 120.176616 270.25 226.758072
v 120.176616 267.75 226.758072
v 118.698384 267.75 224.741928
v 118.698384 270.25 224.741928
v 150.864116 270.25 204.258072
v 150.864116 267.75 204.258072
v 149.385884 267.75 202.241928
v 149.385884 270.25 202.241928
f 313 316 315 314
f 317 318 319 320
f 313 314 318 317
f 314 315 319 318
f 315 316 320 319
f 316 313 317 320
o T-N.header_vertical.2
v 28.625 267.75 203.25
v 28.625 270.25 203.25
v 26.125 270.25 203.25
v 26.125 267.75 203.25
v 28.625 267.75 225.75
v 28.625 270.25 225.75
v 26.125 270.25 225.75
v 26.125 267.75 225.75
f 321 324 323 322
f 325 326 327 328
f 321 322 326 325
f 322 323 327 326
f 323 324 328 327
f 324 321 325 328
o T-N.top.0
v -34 270.5 227.25
v -34 267.5 227.25
v -34 267.5 224.25
v -34 270.5 224.25
v 211.5 270.5 227.25
v 211.5 267.5 227.25
v 211.5 267.5 224.25
v 211.5 270.5 224.25
f 329 332 331 330
f 333 334 335 336
f 329 330 334 333
f 330 331 335 334
f 331 332 336 335
f 332 329 333 336
o T-N.upright.3
v 115 267.5 100
v 115 270.5 100
v 112 270.5 100
v 112 267.5 100
v 115 267.5 225.75
v 115 270.5 225.75
v 112 270.5 225.75
v 112 267.5 225.75
f 337 340 339 338
f 341 342 343 344
f 337 338 342 341
f 338 339 343 342
f 339 340 344 343
f 340 337 341 344
o T-N.header_brace.0
v -34.7391156 270.25 204.258072
v -34.7391156 267.75 204.258072
v -33.2608844 267.75 202.241928
v -33.2608844 270.25 202.241928
v -4.05161557 270.25 226.758072
v -4.05161557 267.75 226.758072
v -2.57338443 267.75 224.741928
v -2.57338443 270.25 224.741928
f 345 348 347 346
f 349 350 351 352
f 345 346 350 349
f 346 347 351 350
f 347 348 352 351
f 348 345 349 352
o T-N.bottom.0
v -34 270.5 101.5
v -34 267.5 101.5
v -34 267.5 98.5
v -34 270.5 98.5
v 211.5 270.5 101.5
v 211.5 267.5 101.5
v 211.5 267.5 98.5
v 211.5 270.5 98.5
f 353 356 355 354
f 357 358 359 360
f 353 354 358 357
f 354 355 359 358
f 355 356 360 359
f 356 353 357 360
o T-N.upright.2
v 83 267.5 100
v 83 270.5 100
v 80 270.5 100
v 80 267.5 100
v 83 267.5 225.75
v 83 270.5 225.75
v 80 270.5 225.75
v 80 267.5 225.75
f 361 364 363 362
f 365 366 367 368
f 361 362 366 365
f 362 363 367 366
f 363 364 368 367
f 364 361 365 368
o T-N.header_vertical.4
v 90 267.75 203.25
v 90 270.25 203.25
v 87.5 270.25 203.25
v 87.5 267.75 203.25
v 90 267.75 225.75
v 90 270.25 225.75
v 87.5 270.25 225.75
v 87.5 267.75 225.75
f 369 372 371 370
f 373 374 375 376
f 369 370 374 373
f 370 371 375 374
f 371 372 376 375
f 372 369 373 376
o T-N.header_vertical.7
v 182.0625 267.75 203.25
v 182.0625 270.25 203.25
v 179.5625 270.25 203.25
v 179.5625 267.75 203.25
v 182.0625 267.75 225.75
v 182.0625 270.25 225.75
v 179.5625 270.25 225.75
v 179.5625 267.75 225.75
f 377 380 379 378
f 381 382 383 384
f 377 378 382 381
f 378 379 383 382
f 379 380 384 383
f 380 377 381 384
o T-S.brace.1
v 171.478173 1.25 142.823207
v 171.478173 -1.25 142.823207
v 169.688493 -1.25 141.077628
v 169.688493 1.25 141.077628
v 212.39484 1.25 100.872789
v 212.39484 -1.25 100.872789
v 210.60516 -1.25 99.1272107
v 210.60516 1.25 99.1272107
f 385 388 387 386
f 389 390 391 392
f 385 386 390 389
f 386 387 391 390
f 387 388 392 391
f 388 385 389 392
o T-S.upright.3
v 90.25 -1.5 100
v 90.25 1.5 100
v 87.25 1.5 100
v 87.25 -1.5 100
v 90.25 -1.5 141.950417
v 90.25 1.5 141.950417
v 87.25 1.5 141.950417
v 87.25 -1.5 141.950417
f 393 396 395 394
f 397 398 399 400
f 393 394 398 397
f 394 395 399 398
f 395 396 400 399
f 396 393 397 400
o T-S.plate.3
v 126.666667 -1.75 136.950417
v 132.666667 -1.75 136.950417
v 132.666667 -1.25 136.950417
v 126.666667 -1.25 136.950417
v 126.666667 -1.75 142.950417
v 132.666667 -1.75 142.950417
v 132.666667 -1.25 142.950417
v 126.666667 -1.25 142.950417
f 401 404 403 402
f 405 406 407 408
f 401 402 406 405
f 402 403 407 406
f 403 404 408 407
f 404 401 405 408
o T-S.upright.4
v 131.166667 -1.5 100
v 131.166667 1.5 100
v 128.166667 1.5 100
v 128.166667 -1.5 100
v 131.166667 -1.5 141.950417
v 131.166667 1.5 141.950417
v 128.166667 1.5 141.950417
v 128.166667 -1.5 141.950417
f 409 412 411 410
f 413 414 415 416
f 409 410 414 413
f 410 411 415 414
f 411 412 416 415
f 412 409 413 416
o T-S.upright.2
v 49.3333333 -1.5 100
v 49.3333333 1.5 100
v 46.3333333 1.5 100
v 46.3333333 -1.5 100
v 49.3333333 -1.5 141.950417
v 49.3333333 1.5 141.950417
v 46.3333333 1.5 141.950417
v 46.3333333 -1.5 141.950417
f 417 420 419 418
f 421 422 423 424
f 417 418 422 421
f 418 419 423 422
f 419 420 424 423
f 420 417 421 424
o T-S.upright.1
v 8.41666667 -1.5 100
v 8.41666667 1.5 100
v 5.41666667 1.5 100
v 5.41666667 -1.5 100
v 8.41666667 -1.5 141.950417
v 8.41666667 1.5 141.950417
v 5.41666667 1.5 141.950417
v 5.41666667 -1.5 141.950417
f 425 428 427 426
f 429 430 431 432
f 425 426 430 429
f 426 427 431 430
f 427 428 432 431
f 428 425 429 432
o T-S.plate.0
v 3.91666667 -1.75 136.950417
v 9.91666667 -1.75 136.950417
v 9.91666667 -1.25 136.950417
v 3.91666667 -1.25 136.950417
v 3.91666667 -1.75 142.950417
v 9.91666667 -1.75 142.950417
v 9.91666667 -1.25 142.950417
v 3.91666667 -1.25 142.950417
f 433 436 435 434
f 437 438 439 440
f 433 434 438 437
f 434 435 439 438
f 435 436 440 439
f 436 433 437 440
o T-S.upright.6
v 213 -1.5 100
v 213 1.5 100
v 210 1.5 100
v 210 -1.5 100
v 213 -1.5 141.950417
v 213 1.5 141.950417
v 210 1.5 141.950417
v 210 -1.5 141.950417
f 441 444 443 442
f 445 446 447 448
f 441 442 446 445
f 442 443 447 446
f 443 444 448 447
f 444 441 445 448
o T-S.plate.1
v 44.8333333 -1.75 136.950417
v 50.8333333 -1.75 136.950417
v 50.8333333 -1.25 136.950417
v 44.8333333 -1.25 136.950417
v 44.8333333 -1.75 142.950417
v 50.8333333 -1.75 142.950417
v 50.8333333 -1.25 142.950417
v 44.8333333 -1.25 142.950417
f 449 452 451 450
f 453 454 455 456
f 449 450 454 453
f 450 451 455 454
f 451 452 456 455
f 452 449 453 456
o T-S.top.0
v -34 1.5 143.450417
v -34 -1.5 143.450417
v -34 -1.5 140.450417
v -34 1.5 140.450417
v 211.5 1.5 143.450417
v 211.5 -1.5 143.450417
v 211.5 -1.5 140.450417
v 211.5 1.5 140.450417
f 457 460 459 458
f 461 462 463 464
f 457 458 462 461
f 458 459 463 462
f 459 460 464 463
f 460 457 461 464
o T-S.upright.5
v 172.083333 -1.5 100
v 172.083333 1.5 100
v 169.083333 1.5 100
v 169.083333 -1.5 100
v 172.083333 -1.5 141.950417
v 172.083333 1.5 141.950417
v 169.083333 1.5 141.950417
v 169.083333 -1.5 141.950417
f 465 468 467 466
f 469 470 471 472
f 465 466 470 469
f 466 467 471 470
f 467 468 472 471
f 468 465 469 472
o T-S.bottom.0
v -34 1.5 101.5
v -34 -1.5 101.5
v -34 -1.5 98.5
v -34 1.5 98.5
v 211.5 1.5 101.5
v 211.5 -1.5 101.5
v 211.5 -1.5 98.5
v 211.5 1.5 98.5
f 473 476 475 474
f 477 478 479 480
f 473 474 478 477
f 474 475 479 478
f 475 476 480 479
f 476 473 477 480
o T-S.brace.0
v -34.8948401 1.25 100.872789
v -34.8948401 -1.25 100.872789
v -33.1051599 -1.25 99.1272107
v -33.1051599 1.25 99.1272107
v 6.02182654 1.25 142.823207
v 6.02182654 -1.25 142.823207
v 7.81150679 -1.25 141.077628
v 7.81150679 1.25 141.077628
f 481 484 483 482
f 485 486 487 488
f 481 482 486 485
f 482 483 487 486
f 483 484 488 487
f 484 481 485 488
o T-S.plate.2
v 85.75 -1.75 136.950417
v 91.75 -1.75 136.950417
v 91.75 -1.25 136.950417
v 85.75 -1.25 136.950417
v 85.75 -1.75 142.950417
v 91.75 -1.75 142.950417
v 91.75 -1.25 142.950417
v 85.75 -1.25 142.950417
f 489 492 491 490
f 493 494 495 496
f 489 490 494 493
f 490 491 495 494
f 491 492 496 495
f 492 489 493 496
o T-S.upright.0
v -32.5 -1.5 100
v -32.5 1.5 100
v -35.5 1.5 100
v -35.5 -1.5 100
v -32.5 -1.5 141.950417
v -32.5 1.5 141.950417
v -35.5 1.5 141.950417
v -35.5 -1.5 141.950417
f 497 500 499 498
f 501 502 503 504
f 497 498 502 501
f 498 499 503 502
f 499 500 504 503
f 500 497 501 504
o T-S.plate.4
v 167.583333 -1.75 136.950417
v 173.583333 -1.75 136.950417
v 173.583333 -1.25 136.950417
v 167.583333 -1.25 136.950417
v 167.583333 -1.75 142.950417
v 173.583333 -1.75 142.950417
v 173.583333 -1.25 142.950417
v 167.583333 -1.25 142.950417
f 505 508 507 506
f 509 510 511 512
f 505 506 510 509
f 506 507 511 510
f 507 508 512 511
f 508 505 509 512
o T-W.web.4
v -32.75 143.95355 100.377658
v -32.75 146.33672 99.6223423
v -35.25 146.33672 99.6223423
v -35.25 143.95355 100.377658
v -32.75 183.808415 226.127658
v -32.75 186.191585 225.372342
v -35.25 186.191585 225.372342
v -35.25 183.808415 226.127658
f 513 516 515 514
f 517 518 519 520
f 513 514 518 517
f 514 515 519 518
f 515 516 520 519
f 516 513 517 520
o T-W.upright.6
v -32.5 184.5 100
v -32.5 187.5 100
v -35.5 187.5 100
v -35.5 184.5 100
v -32.5 184.5 225.75
v -32.5 187.5 225.75
v -35.5 187.5 225.75
v -35.5 184.5 225.75
f 521 524 523 522
f 525 526 527 528
f 521 522 526 525
f 522 523 527 526
f 523 524 528 527
f 524 521 525 528
o T-W.upright.2
v -32.5 -1.5 100
v -32.5 1.5 100
v -35.5 1.5 100
v -35.5 -1.5 100
v -32.5 -1.5 141.950417
v -32.5 1.5 141.950417
v -35.5 1.5 141.950417
v -35.5 -1.5 141.950417
f 529 532 531 530
f 533 534 535 536
f 529 530 534 533
f 530 531 535 534
f 531 532 536 535
f 532 529 533 536
o T-W.web.2
v -35.25 -0.953210377 100.808635
v -32.75 -0.953210377 100.808635
v -32.75 0.953210377 99.1913654
v -35.25 0.953210377 99.1913654
v -35.25 68.7967896 183.029233
v -32.75 68.7967896 183.029233
v -32.75 70.7032104 181.411964
v -35.25 70.7032104 181.411964
f 537 540 539 538
f 541 542 543 544
f 537 538 542 541
f 538 539 543 542
f 539 540 544 543
f 540 537 541 544
o T-W.door_header.0
v -35.5 186 191.75
v -32.5 186 191.75
v -32.5 186 188.75
v -35.5 186 188.75
v -35.5 246 191.75
v -32.5 246 191.75
v -32.5 246 188.75
v -35.5 246 188.75
f 545 548 547 546
f 549 550 551 552
f 545 546 550 549
f 546 547 551 550
f 547 548 552 551
f 548 545 549 552
o T-W.upright.7
v -32.5 244.5 100
v -32.5 247.5 100
v -35.5 247.5 100
v -35.5 244.5 100
v -32.5 244.5 225.75
v -32.5 247.5 225.75
v -35.5 247.5 225.75
v -35.5 244.5 225.75
f 553 556 555 554
f 557 558 559 560
f 553 554 558 557
f 554 555 559 558
f 555 556 560 559
f 556 553 557 560
o T-W.upright.0
v -32.5 -67.5 100
v -32.5 -64.5 100
v -35.5 -64.5 100
v -35.5 -67.5 100
v -32.5 -67.5 103.845299
v -32.5 -64.5 103.845299
v -35.5 -64.5 103.845299
v -35.5 -67.5 103.845299
f 561 564 563 562
f 565 566 567 568
f 561 562 566 565
f 562 563 567 566
f 563 564 568 567
f 564 561 565 568
o T-W.top.1
v -35.5 -2.75 142.094755
v -32.5 -2.75 142.094755
v -32.5 -1.25 139.496679
v -35.5 -1.25 139.496679
v -35.5 -0.75 143.249455
v -32.5 -0.75 143.249455
v -32.5 0.75 140.651379
v -35.5 0.75 140.651379
f 569 572 571 570
f 573 574 575 576
f 569 570 574 573
f 570 571 575 574
f 571 572 576 575
f 572 569 573 576
o T-W.top.4
v -35.5 145.145135 227.25
v -32.5 145.145135 227.25
v -32.5 145.145135 224.25
v -35.5 145.145135 224.25
v -35.5 185 227.25
v -32.5 185 227.25
v -32.5 185 224.25
v -35.5 185 224.25
f 577 580 579 578
f 581 582 583 584
f 577 578 582 581
f 578 579 583 582
f 579 580 584 583
f 580 577 581 584
o T-W.top.3
v -35.5 69 183.519637
v -32.5 69 183.519637
v -32.5 70.5 180.92156
v -35.5 70.5 180.92156
v -35.5 144.395135 227.049038
v -32.5 144.395135 227.049038
v -32.5 145.895135 224.450962
v -35.5 145.895135 224.450962
f 585 588 587 586
f 589 590 591 592
f 585 586 590 589
f 586 587 591 590
f 587 588 592 591
f 588 585 589 592
o T-W.top.5
v -35.5 185 227.25
v -32.5 185 227.25
v -32.5 185 224.25
v -35.5 185 224.25
v -35.5 186 227.25
v -32.5 186 227.25
v -32.5 186 224.25
v -35.5 186 224.25
f 593 596 595 594
f 597 598 599 600
f 593 594 598 597
f 594 595 599 598
f 595 596 600 599
f 596 593 597 600
o T-W.top.2
v -35.5 -0.75 143.249455
v -32.5 -0.75 143.249455
v -32.5 0.75 140.651379
v -35.5 0.75 140.651379
v -35.5 69 183.519637
v -32.5 69 183.519637
v -32.5 70.5 180.92156
v -35.5 70.5 180.92156
f 601 604 603 602
f 605 606 607 608
f 601 602 606 605
f 602 603 607 606
f 603 604 608 607
f 604 601 605 608
o T-W.bottom.0
v -35.5 -66 101.5
v -32.5 -66 101.5
v -32.5 -66 98.5
v -35.5 -66 98.5
v -35.5 269 101.5
v -32.5 269 101.5
v -32.5 269 98.5
v -35.5 269 98.5
f 609 612 611 610
f 613 614 615 616
f 609 610 614 613
f 610 611 615 614
f 611 612 616 615
f 612 609 613 616
o T-W.top.6
v -35.5 186 227.25
v -32.5 186 227.25
v -32.5 186 224.25
v -35.5 186 224.25
v -35.5 246 227.25
v -32.5 246 227.25
v -32.5 246 224.25
v -35.5 246 224.25
f 617 620 619 618
f 621 622 623 624
f 617 618 622 621
f 618 619 623 622
f 619 620 624 623
f 620 617 621 624
o T-W.upright.3
v -32.5 68.25 100
v -32.5 71.25 100
v -35.5 71.25 100
v -35.5 68.25 100
v -32.5 68.25 182.220599
v -32.5 71.25 182.220599
v -35.5 71.25 182.220599
v -35.5 68.25 182.220599
f 625 628 627 626
f 629 630 631 632
f 625 626 630 629
f 626 627 631 630
f 627 628 632 631
f 628 625 629 632
o T-W.top.0
v -35.5 -66.75 105.144338
v -32.5 -66.75 105.144338
v -32.5 -65.25 102.546261
v -35.5 -65.25 102.546261
v -35.5 -2.75 142.094755
v -32.5 -2.75 142.094755
v -32.5 -1.25 139.496679
v -35.5 -1.25 139.496679
f 633 636 635 634
f 637 638 639 640
f 633 634 638 637
f 634 635 639 638
f 635 636 640 639
f 636 633 637 640
o T-W.upright.5
v -32.5 183.5 100
v -32.5 186.5 100
v -35.5 186.5 100
v -35.5 183.5 100
v -32.5 183.5 225.75
v -32.5 186.5 225.75
v -35.5 186.5 225.75
v -35.5 183.5 225.75
f 641 644 643 642
f 645 646 647 648
f 641 642 646 645
f 642 643 647 646
f 643 644 648 647
f 644 641 645 648
o T-W.upright.1
v -32.5 -3.5 100
v -32.5 -0.5 100
v -35.5 -0.5 100
v -35.5 -3.5 100
v -32.5 -3.5 140.795717
v -32.5 -0.5 140.795717
v -35.5 -0.5 140.795717
v -35.5 -3.5 140.795717
f 649 652 651 650
f 653 654 655 656
f 649 650 654 653
f 650 651 655 654
f 651 652 656 655
f 652 649 653 656
o T-W.web.3
v -35.25 68.6779275 100.642776
v -32.75 68.6779275 100.642776
v -32.75 70.8220725 99.3572243
v -35.25 70.8220725 99.3572243
v -35.25 144.073063 226.392776
v -32.75 144.073063 226.392776
v -32.75 146.217207 225.107224
v -35.25 146.217207 225.107224
f 657 660 659 658
f 661 662 663 664
f 657 658 662 661
f 658 659 663 662
f 659 660 664 663
f 660 657 661 664
o T-W.web.1
v -32.75 -3.24858183 100.059527
v -32.75 -0.751418169 99.9404734
v -35.25 -0.751418169 99.9404734
v -35.25 -3.24858183 100.059527
v -32.75 -1.24858183 142.009944
v -32.75 1.24858183 141.890891
v -35.25 1.24858183 141.890891
v -35.25 -1.24858183 142.009944
f 665 668 667 666
f 669 670 671 672
f 665 666 670 669
f 666 667 671 670
f 667 668 672 671
f 668 665 669 672
o T-W.upright.4
v -32.5 143.645135 100
v -32.5 146.645135 100
v -35.5 146.645135 100
v -35.5 143.645135 100
v -32.5 143.645135 225.75
v -32.5 146.645135 225.75
v -35.5 146.645135 225.75
v -35.5 143.645135 225.75
f 673 676 675 674
f 677 678 679 680
f 673 674 678 677
f 674 675 679 678
f 675 676 680 679
f 676 673 677 680
o T-W.upright.8
v -32.5 267.5 100
v -32.5 270.5 100
v -35.5 270.5 100
v -35.5 267.5 100
v -32.5 267.5 225.75
v -32.5 270.5 225.75
v -35.5 270.5 225.75
v -35.5 267.5 225.75
f 681 684 683 682
f 685 686 687 688
f 681 682 686 685
f 682 683 687 686
f 683 684 688 687
f 684 681 685 688
o T-W.web.0
v -35.25 -66.6718965 101.054066
v -32.75 -66.6718965 101.054066
v -32.75 -65.3281035 98.945934
v -35.25 -65.3281035 98.945934
v -35.25 -2.67189651 141.849783
v -32.75 -2.67189651 141.849783
v -32.75 -1.32810349 139.741651
v -35.25 -1.32810349 139.741651
f 689 692 691 690
f 693 694 695 696
f 689 690 694 693
f 690 691 695 694
f 691 692 696 695
f 692 689 693 696
o T-W.top.7
v -35.5 246 227.25
v -32.5 246 227.25
v -32.5 246 224.25
v -35.5 246 224.25
v -35.5 269 227.25
v -32.5 269 227.25
v -32.5 269 224.25
v -35.5 269 224.25
f 697 700 699 698
f 701 702 703 704
f 697 698 702 701
f 698 699 703 702
f 699 700 704 703
f 700 697 701 704
o T1.plate.4
v 167.583333 68 177.220599
v 173.583333 68 177.220599
v 173.583333 68.5 177.220599
v 167.583333 68.5 177.220599
v 167.583333 68 183.220599
v 173.583333 68 183.220599
v 173.583333 68.5 183.220599
v 167.583333 68.5 183.220599
f 705 708 707 706
f 709 710 711 712
f 705 706 710 709
f 706 707 711 710
f 707 708 712 711
f 708 705 709 712
o T1.upright.5
v 172.083333 68.25 100
v 172.083333 71.25 100
v 169.083333 71.25 100
v 169.083333 68.25 100
v 172.083333 68.25 182.220599
v 172.083333 71.25 182.220599
v 169.083333 71.25 182.220599
v 169.083333 68.25 182.220599
f 713 716 715 714
f 717 718 719 720
f 713 714 718 717
f 714 715 719 718
f 715 716 720 719
f 716 713 717 720
o T1.plate.0
v 3.91666667 68 177.220599
v 9.91666667 68 177.220599
v 9.91666667 68.5 177.220599
v 3.91666667 68.5 177.220599
v 3.91666667 68 183.220599
v 9.91666667 68 183.220599
v 9.91666667 68.5 183.220599
v 3.91666667 68.5 183.220599
f 721 724 723 722
f 725 726 727 728
f 721 722 726 725
f 722 723 727 726
f 723 724 728 727
f 724 721 725 728
o T1.upright.4
v 131.166667 68.25 100
v 131.166667 71.25 100
v 128.166667 71.25 100
v 128.166667 68.25 100
v 131.166667 68.25 182.220599
v 131.166667 71.25 182.220599
v 128.166667 71.25 182.220599
v 128.166667 68.25 182.220599
f 729 732 731 730
f 733 734 735 736
f 729 730 734 733
f 730 731 735 734
f 731 732 736 735
f 732 729 733 736
o T1.plate.3
v 126.666667 68 177.220599
v 132.666667 68 177.220599
v 132.666667 68.5 177.220599
v 126.666667 68.5 177.220599
v 126.666667 68 183.220599
v 132.666667 68 183.220599
v 132.666667 68.5 183.220599
v 126.666667 68.5 183.220599
f 737 740 739 738
f 741 742 743 744
f 737 738 742 741
f 738 739 743 742
f 739 740 744 743
f 740 737 741 744
o T1.bottom.0
v -34 71.25 101.5
v -34 68.25 101.5
v -34 68.25 98.5
v -34 71.25 98.5
v 211.5 71.25 101.5
v 211.5 68.25 101.5
v 211.5 68.25 98.5
v 211.5 71.25 98.5
f 745 748 747 746
f 749 750 751 752
f 745 746 750 749
f 746 747 751 750
f 747 748 752 751
f 748 745 749 752
o T1.upright.2
v 49.3333333 68.25 100
v 49.3333333 71.25 100
v 46.3333333 71.25 100
v 46.3333333 68.25 100
v 49.3333333 68.25 182.220599
v 49.3333333 71.25 182.220599
v 46.3333333 71.25 182.220599
v 46.3333333 68.25 182.220599
f 753 756 755 754
f 757 758 759 760
f 753 754 758 757
f 754 755 759 758
f 755 756 760 759
f 756 753 757 760
o T1.upright.0
v -32.5 68.25 100
v -32.5 71.25 100
v -35.5 71.25 100
v -35.5 68.25 100
v -32.5 68.25 182.220599
v -32.5 71.25 182.220599
v -35.5 71.25 182.220599
v -35.5 68.25 182.220599
f 761 764 763 762
f 765 766 767 768
f 761 762 766 765
f 762 763 767 766
f 763 764 768 767
f 764 761 765 768
o T1.plate.2
v 85.75 68 177.220599
v 91.75 68 177.220599
v 91.75 68.5 177.220599
v 85.75 68.5 177.220599
v 85.75 68 183.220599
v 91.75 68 183.220599
v 91.75 68.5 183.220599
v 85.75 68.5 183.220599
f 769 772 771 770
f 773 774 775 776
f 769 770 774 773
f 770 771 775 774
f 771 772 776 775
f 772 769 773 776
o T1.plate.1
v 44.8333333 68 177.220599
v 50.8333333 68 177.220599
v 50.8333333 68.5 177.220599
v 44.8333333 68.5 177.220599
v 44.8333333 68 183.220599
v 50.8333333 68 183.220599
v 50.8333333 68.5 183.220599
v 44.8333333 68.5 183.220599
f 777 780 779 778
f 781 782 783 784
f 777 778 782 781
f 778 779 783 782
f 779 780 784 783
f 780 777 781 784
o T1.upright.3
v 90.25 68.25 100
v 90.25 71.25 100
v 87.25 71.25 100
v 87.25 68.25 100
v 90.25 68.25 182.220599
v 90.25 71.25 182.220599
v 87.25 71.25 182.220599
v 87.25 68.25 182.220599
f 785 788 787 786
f 789 790 791 792
f 785 786 790 789
f 786 787 791 790
f 787 788 792 791
f 788 785 789 792
o T1.upright.6
v 213 68.25 100
v 213 71.25 100
v 210 71.25 100
v 210 68.25 100
v 213 68.25 182.220599
v 213 71.25 182.220599
v 210 71.25 182.220599
v 210 68.25 182.220599
f 793 796 795 794
f 797 798 799 800
f 793 794 798 797
f 794 795 799 798
f 795 796 800 799
f 796 793 797 800
o T1.top.0
v -34 71.25 183.720599
v -34 68.25 183.720599
v -34 68.25 180.720599
v -34 71.25 180.720599
v 211.5 71.25 183.720599
v 211.5 68.25 183.720599
v 211.5 68.25 180.720599
v 211.5 71.25 180.720599
f 801 804 803 802
f 805 806 807 808
f 801 802 806 805
f 802 803 807 806
f 803 804 808 807
f 804 801 805 808
o T1.brace.1
v 171.70242 71 182.777506
v 171.70242 68.5 182.777506
v 169.464247 68.5 181.663691
v 169.464247 71 181.663691
v 212.619086 71 100.556908
v 212.619086 68.5 100.556908
v 210.380914 68.5 99.4430924
v 210.380914 71 99.4430924
f 809 812 811 810
f 813 814 815 816
f 809 810 814 813
f 810 811 815 814
f 811 812 816 815
f 812 809 813 816
o T1.upright.1
v 8.41666667 68.25 100
v 8.41666667 71.25 100
v 5.41666667 71.25 100
v 5.41666667 68.25 100
v 8.41666667 68.25 182.220599
v 8.41666667 71.25 182.220599
v 5.41666667 71.25 182.220599
v 5.41666667 68.25 182.220599
f 817 820 819 818
f 821 822 823 824
f 817 818 822 821
f 818 819 823 822
f 819 820 824 823
f 820 817 821 824
o T1.brace.0
v -35.1190862 71 100.556908
v -35.1190862 68.5 100.556908
v -32.8809138 68.5 99.4430924
v -32.8809138 71 99.4430924
v 5.79758047 71 182.777506
v 5.79758047 68.5 182.777506
v 8.03575286 68.5 181.663691
v 8.03575286 71 181.663691
f 825 828 827 826
f 829 830 831 832
f 825 826 830 829
f 826 827 831 830
f 827 828 832 831
f 828 825 829 832
o S2
v 209.5 -68 0
v 209.5 -64 0
v 213.5 -64 0
v 213.5 -68 0
v 209.5 -68 98.5
v 213.5 -68 98.5
v 213.5 -64 98.5
v 209.5 -64 98.5
f 833 834 835 836
f 833 836 838 837
f 836 835 839 838
f 835 834 840 839
f 834 833 837 840
f 837 838 839 840
o N2
v 209.5 267 0
v 209.5 271 0
v 213.5 271 0
v 213.5 267 0
v 209.5 267 98.5
v 213.5 267 98.5
v 213.5 271 98.5
v 209.5 271 98.5
f 841 842 843 844
f 841 844 846 845
f 844 843 847 846
f 843 842 848 847
f 842 841 845 848
f 845 846 847 848
o E-M
v 244.5 183 0
v 244.5 187 0
v 248.5 187 0
v 248.5 183 0
v 244.5 183 98.5
v 248.5 183 98.5
v 248.5 187 98.5
v 244.5 187 98.5
f 849 850 851 852
f 849 852 854 853
f 852 851 855 854
f 851 850 856 855
f 850 849 853 856
f 853 854 855 856
o E-N
v 245.5 249 0
v 245.5 253 0
v 249.5 253 0
v 249.5 249 0
v 245.5 249 98.5
v 249.5 249 98.5
v 249.5 253 98.5
v 245.5 253 98.5
f 857 858 859 860
f 857 860 862 861
f 860 859 863 862
f 859 858 864 863
f 858 857 861 864
f 861 862 863 864
o W1
v -36 -68 0
v -36 -64 0
v -32 -64 0
v -32 -68 0
v -36 -68 98.5
v -32 -68 98.5
v -32 -64 98.5
v -36 -64 98.5
f 865 866 867 868
f 865 868 870 869
f 868 867 871 870
f 867 866 872 871
f 866 865 869 872
f 869 870 871 872
o W4
v -36 267 0
v -36 271 0
v -32 271 0
v -32 267 0
v -36 267 98.5
v -32 267 98.5
v -32 271 98.5
v -36 271 98.5
f 873 874 875 876
f 873 876 878 877
f 876 875 879 878
f 875 874 880 879
f 874 873 877 880
f 877 878 879 880
o WB3
v -4 183 0
v -4 187 0
v 0 187 0
v 0 183 0
v -4 183 98.5
v 0 183 98.5
v 0 187 98.5
v -4 187 98.5
f 881 882 883 884
f 881 884 886 885
f 884 883 887 886
f 883 882 888 887
f 882 881 885 888
f 885 886 887 888
o W3
v -36 183 0
v -36 187 0
v -32 187 0
v -32 183 0
v -36 183 98.5
v -32 183 98.5
v -32 187 98.5
v -36 187 98.5
f 889 890 891 892
f 889 892 894 893
f 892 891 895 894
f 891 890 896 895
f 890 889 893 896
f 893 894 895 896
o S1
v 146.5 -68 0
v 146.5 -64 0
v 150.5 -64 0
v 150.5 -68 0
v 146.5 -68 98.5
v 150.5 -68 98.5
v 150.5 -64 98.5
v 146.5 -64 98.5
f 897 898 899 900
f 897 900 902 901
f 900 899 903 902
f 899 898 904 903
f 898 897 901 904
f 901 902 903 904
o S3
v 209.5 -4 0
v 209.5 0 0
v 213.5 0 0
v 213.5 -4 0
v 209.5 -4 98.5
v 213.5 -4 98.5
v 213.5 0 98.5
v 209.5 0 98.5
f 905 906 907 908
f 905 908 910 909
f 908 907 911 910
f 907 906 912 911
f 906 905 909 912
f 909 910 911 912
o W2
v -36 67.75 0
v -36 71.75 0
v -32 71.75 0
v -32 67.75 0
v -36 67.75 98.5
v -32 67.75 98.5
v -32 71.75 98.5
v -36 71.75 98.5
f 913 914 915 916
f 913 916 918 917
f 916 915 919 918
f 915 914 920 919
f 914 913 917 920
f 917 918 919 920
o E-S
v 245.5 -4 0
v 245.5 0 0
v 249.5 0 0
v 249.5 -4 0
v 245.5 -4 98.5
v 249.5 -4 98.5
v 249.5 0 98.5
v 245.5 0 98.5
f 921 922 923 924
f 921 924 926 925
f 924 923 927 926
f 923 922 928 927
f 922 921 925 928
f 925 926 927 928
o N1
v 17.5 267 0
v 17.5 271 0
v 21.5 271 0
v 21.5 267 0
v 17.5 267 98.5
v 21.5 267 98.5
v 21.5 271 98.5
v 17.5 271 98.5
f 929 930 931 932
f 929 932 934 933
f 932 931 935 934
f 931 930 936 935
f 930 929 933 936
f 933 934 935 936
o E-OB
v 246 -4 101.5
v 249 -4 101.5
v 249 -4 98.5
v 246 -4 98.5
v 246 253 101.5
v 249 253 101.5
v 249 253 98.5
v 246 253 98.5
f 937 940 939 938
f 941 942 943 944
f 937 938 942 941
f 938 939 943 942
f 939 940 944 943
f 940 937 941 944
o B-WO_reference
v -34 -66 98.5
v -34 269 98.5
l 945 946
o B2_reference
v -34 185 98.5
v 211.5 185 98.5
l 947 948
o B3_reference
v -34 249 98.5
v 211.5 249 98.5
l 949 950
o C-EM_reference
v 246.5 185 98.5
v 211.5 185 98.5
l 951 952
o C-EN_reference
v 247.5 251 98.5
v 211.5 251 98.5
l 953 954
o C-ES_reference
v 247.5 -2 98.5
v 211.5 -2 98.5
l 955 956
o T-SO_reference
v -34 -64 98.5
v 211.5 -64 98.5
l 957 958
