%TF.GenerationSoftware,KiCad,Pcbnew,9.0.8+dfsg-1*%
%TF.CreationDate,2026-10-05T22:56:53+00:00*%
%TF.ProjectId,nezha-qwiic,6e657a68-612d-4717-9769-69632e6b6963,A*%
%TF.SameCoordinates,Original*%
%TF.FileFunction,Legend,Top*%
%TF.FilePolarity,Positive*%
%FSLAX46Y46*%
G04 Gerber Fmt 4.6, Leading zero omitted, Abs format (unit mm)*
G04 Created by KiCad (PCBNEW 9.0.8+dfsg-1) date 2026-10-05 22:56:53*
%MOMM*%
%LPD*%
G01*
G04 APERTURE LIST*
%ADD10C,0.120000*%
%ADD11C,0.127500*%
%ADD12C,0.150000*%
%ADD13C,0.187500*%
G04 APERTURE END LIST*
D10*
X22080952Y-18463855D02*
X21814285Y-18082902D01*
X21623809Y-18463855D02*
X21623809Y-17663855D01*
X21623809Y-17663855D02*
X21928571Y-17663855D01*
X21928571Y-17663855D02*
X22004761Y-17701950D01*
X22004761Y-17701950D02*
X22042856Y-17740045D01*
X22042856Y-17740045D02*
X22080952Y-17816236D01*
X22080952Y-17816236D02*
X22080952Y-17930521D01*
X22080952Y-17930521D02*
X22042856Y-18006712D01*
X22042856Y-18006712D02*
X22004761Y-18044807D01*
X22004761Y-18044807D02*
X21928571Y-18082902D01*
X21928571Y-18082902D02*
X21623809Y-18082902D01*
X22842856Y-18463855D02*
X22385713Y-18463855D01*
X22614285Y-18463855D02*
X22614285Y-17663855D01*
X22614285Y-17663855D02*
X22538094Y-17778140D01*
X22538094Y-17778140D02*
X22461904Y-17854331D01*
X22461904Y-17854331D02*
X22385713Y-17892426D01*
X23947619Y-17663855D02*
X24023809Y-17663855D01*
X24023809Y-17663855D02*
X24100000Y-17701950D01*
X24100000Y-17701950D02*
X24138095Y-17740045D01*
X24138095Y-17740045D02*
X24176190Y-17816236D01*
X24176190Y-17816236D02*
X24214285Y-17968617D01*
X24214285Y-17968617D02*
X24214285Y-18159093D01*
X24214285Y-18159093D02*
X24176190Y-18311474D01*
X24176190Y-18311474D02*
X24138095Y-18387664D01*
X24138095Y-18387664D02*
X24100000Y-18425760D01*
X24100000Y-18425760D02*
X24023809Y-18463855D01*
X24023809Y-18463855D02*
X23947619Y-18463855D01*
X23947619Y-18463855D02*
X23871428Y-18425760D01*
X23871428Y-18425760D02*
X23833333Y-18387664D01*
X23833333Y-18387664D02*
X23795238Y-18311474D01*
X23795238Y-18311474D02*
X23757142Y-18159093D01*
X23757142Y-18159093D02*
X23757142Y-17968617D01*
X23757142Y-17968617D02*
X23795238Y-17816236D01*
X23795238Y-17816236D02*
X23833333Y-17740045D01*
X23833333Y-17740045D02*
X23871428Y-17701950D01*
X23871428Y-17701950D02*
X23947619Y-17663855D01*
X25014286Y-18463855D02*
X24747619Y-18082902D01*
X24557143Y-18463855D02*
X24557143Y-17663855D01*
X24557143Y-17663855D02*
X24861905Y-17663855D01*
X24861905Y-17663855D02*
X24938095Y-17701950D01*
X24938095Y-17701950D02*
X24976190Y-17740045D01*
X24976190Y-17740045D02*
X25014286Y-17816236D01*
X25014286Y-17816236D02*
X25014286Y-17930521D01*
X25014286Y-17930521D02*
X24976190Y-18006712D01*
X24976190Y-18006712D02*
X24938095Y-18044807D01*
X24938095Y-18044807D02*
X24861905Y-18082902D01*
X24861905Y-18082902D02*
X24557143Y-18082902D01*
X33890476Y-6991950D02*
X33814286Y-6953855D01*
X33814286Y-6953855D02*
X33700000Y-6953855D01*
X33700000Y-6953855D02*
X33585714Y-6991950D01*
X33585714Y-6991950D02*
X33509524Y-7068140D01*
X33509524Y-7068140D02*
X33471429Y-7144331D01*
X33471429Y-7144331D02*
X33433333Y-7296712D01*
X33433333Y-7296712D02*
X33433333Y-7410998D01*
X33433333Y-7410998D02*
X33471429Y-7563379D01*
X33471429Y-7563379D02*
X33509524Y-7639569D01*
X33509524Y-7639569D02*
X33585714Y-7715760D01*
X33585714Y-7715760D02*
X33700000Y-7753855D01*
X33700000Y-7753855D02*
X33776191Y-7753855D01*
X33776191Y-7753855D02*
X33890476Y-7715760D01*
X33890476Y-7715760D02*
X33928572Y-7677664D01*
X33928572Y-7677664D02*
X33928572Y-7410998D01*
X33928572Y-7410998D02*
X33776191Y-7410998D01*
X34271429Y-7753855D02*
X34271429Y-6953855D01*
X34271429Y-6953855D02*
X34728572Y-7753855D01*
X34728572Y-7753855D02*
X34728572Y-6953855D01*
X35109524Y-7753855D02*
X35109524Y-6953855D01*
X35109524Y-6953855D02*
X35300000Y-6953855D01*
X35300000Y-6953855D02*
X35414286Y-6991950D01*
X35414286Y-6991950D02*
X35490476Y-7068140D01*
X35490476Y-7068140D02*
X35528571Y-7144331D01*
X35528571Y-7144331D02*
X35566667Y-7296712D01*
X35566667Y-7296712D02*
X35566667Y-7410998D01*
X35566667Y-7410998D02*
X35528571Y-7563379D01*
X35528571Y-7563379D02*
X35490476Y-7639569D01*
X35490476Y-7639569D02*
X35414286Y-7715760D01*
X35414286Y-7715760D02*
X35300000Y-7753855D01*
X35300000Y-7753855D02*
X35109524Y-7753855D01*
X33509523Y-9493855D02*
X34004761Y-9493855D01*
X34004761Y-9493855D02*
X33738095Y-9798617D01*
X33738095Y-9798617D02*
X33852380Y-9798617D01*
X33852380Y-9798617D02*
X33928571Y-9836712D01*
X33928571Y-9836712D02*
X33966666Y-9874807D01*
X33966666Y-9874807D02*
X34004761Y-9950998D01*
X34004761Y-9950998D02*
X34004761Y-10141474D01*
X34004761Y-10141474D02*
X33966666Y-10217664D01*
X33966666Y-10217664D02*
X33928571Y-10255760D01*
X33928571Y-10255760D02*
X33852380Y-10293855D01*
X33852380Y-10293855D02*
X33623809Y-10293855D01*
X33623809Y-10293855D02*
X33547618Y-10255760D01*
X33547618Y-10255760D02*
X33509523Y-10217664D01*
X34233333Y-9493855D02*
X34500000Y-10293855D01*
X34500000Y-10293855D02*
X34766666Y-9493855D01*
X34957142Y-9493855D02*
X35452380Y-9493855D01*
X35452380Y-9493855D02*
X35185714Y-9798617D01*
X35185714Y-9798617D02*
X35299999Y-9798617D01*
X35299999Y-9798617D02*
X35376190Y-9836712D01*
X35376190Y-9836712D02*
X35414285Y-9874807D01*
X35414285Y-9874807D02*
X35452380Y-9950998D01*
X35452380Y-9950998D02*
X35452380Y-10141474D01*
X35452380Y-10141474D02*
X35414285Y-10217664D01*
X35414285Y-10217664D02*
X35376190Y-10255760D01*
X35376190Y-10255760D02*
X35299999Y-10293855D01*
X35299999Y-10293855D02*
X35071428Y-10293855D01*
X35071428Y-10293855D02*
X34995237Y-10255760D01*
X34995237Y-10255760D02*
X34957142Y-10217664D01*
X33528571Y-12795760D02*
X33642857Y-12833855D01*
X33642857Y-12833855D02*
X33833333Y-12833855D01*
X33833333Y-12833855D02*
X33909524Y-12795760D01*
X33909524Y-12795760D02*
X33947619Y-12757664D01*
X33947619Y-12757664D02*
X33985714Y-12681474D01*
X33985714Y-12681474D02*
X33985714Y-12605283D01*
X33985714Y-12605283D02*
X33947619Y-12529093D01*
X33947619Y-12529093D02*
X33909524Y-12490998D01*
X33909524Y-12490998D02*
X33833333Y-12452902D01*
X33833333Y-12452902D02*
X33680952Y-12414807D01*
X33680952Y-12414807D02*
X33604762Y-12376712D01*
X33604762Y-12376712D02*
X33566667Y-12338617D01*
X33566667Y-12338617D02*
X33528571Y-12262426D01*
X33528571Y-12262426D02*
X33528571Y-12186236D01*
X33528571Y-12186236D02*
X33566667Y-12110045D01*
X33566667Y-12110045D02*
X33604762Y-12071950D01*
X33604762Y-12071950D02*
X33680952Y-12033855D01*
X33680952Y-12033855D02*
X33871429Y-12033855D01*
X33871429Y-12033855D02*
X33985714Y-12071950D01*
X34328572Y-12833855D02*
X34328572Y-12033855D01*
X34328572Y-12033855D02*
X34519048Y-12033855D01*
X34519048Y-12033855D02*
X34633334Y-12071950D01*
X34633334Y-12071950D02*
X34709524Y-12148140D01*
X34709524Y-12148140D02*
X34747619Y-12224331D01*
X34747619Y-12224331D02*
X34785715Y-12376712D01*
X34785715Y-12376712D02*
X34785715Y-12490998D01*
X34785715Y-12490998D02*
X34747619Y-12643379D01*
X34747619Y-12643379D02*
X34709524Y-12719569D01*
X34709524Y-12719569D02*
X34633334Y-12795760D01*
X34633334Y-12795760D02*
X34519048Y-12833855D01*
X34519048Y-12833855D02*
X34328572Y-12833855D01*
X35090476Y-12605283D02*
X35471429Y-12605283D01*
X35014286Y-12833855D02*
X35280953Y-12033855D01*
X35280953Y-12033855D02*
X35547619Y-12833855D01*
X33547618Y-15335760D02*
X33661904Y-15373855D01*
X33661904Y-15373855D02*
X33852380Y-15373855D01*
X33852380Y-15373855D02*
X33928571Y-15335760D01*
X33928571Y-15335760D02*
X33966666Y-15297664D01*
X33966666Y-15297664D02*
X34004761Y-15221474D01*
X34004761Y-15221474D02*
X34004761Y-15145283D01*
X34004761Y-15145283D02*
X33966666Y-15069093D01*
X33966666Y-15069093D02*
X33928571Y-15030998D01*
X33928571Y-15030998D02*
X33852380Y-14992902D01*
X33852380Y-14992902D02*
X33699999Y-14954807D01*
X33699999Y-14954807D02*
X33623809Y-14916712D01*
X33623809Y-14916712D02*
X33585714Y-14878617D01*
X33585714Y-14878617D02*
X33547618Y-14802426D01*
X33547618Y-14802426D02*
X33547618Y-14726236D01*
X33547618Y-14726236D02*
X33585714Y-14650045D01*
X33585714Y-14650045D02*
X33623809Y-14611950D01*
X33623809Y-14611950D02*
X33699999Y-14573855D01*
X33699999Y-14573855D02*
X33890476Y-14573855D01*
X33890476Y-14573855D02*
X34004761Y-14611950D01*
X34804762Y-15297664D02*
X34766666Y-15335760D01*
X34766666Y-15335760D02*
X34652381Y-15373855D01*
X34652381Y-15373855D02*
X34576190Y-15373855D01*
X34576190Y-15373855D02*
X34461904Y-15335760D01*
X34461904Y-15335760D02*
X34385714Y-15259569D01*
X34385714Y-15259569D02*
X34347619Y-15183379D01*
X34347619Y-15183379D02*
X34309523Y-15030998D01*
X34309523Y-15030998D02*
X34309523Y-14916712D01*
X34309523Y-14916712D02*
X34347619Y-14764331D01*
X34347619Y-14764331D02*
X34385714Y-14688140D01*
X34385714Y-14688140D02*
X34461904Y-14611950D01*
X34461904Y-14611950D02*
X34576190Y-14573855D01*
X34576190Y-14573855D02*
X34652381Y-14573855D01*
X34652381Y-14573855D02*
X34766666Y-14611950D01*
X34766666Y-14611950D02*
X34804762Y-14650045D01*
X35528571Y-15373855D02*
X35147619Y-15373855D01*
X35147619Y-15373855D02*
X35147619Y-14573855D01*
D11*
X29216667Y-4836597D02*
X29216667Y-5443740D01*
X29216667Y-5443740D02*
X29176190Y-5565168D01*
X29176190Y-5565168D02*
X29095238Y-5646121D01*
X29095238Y-5646121D02*
X28973809Y-5686597D01*
X28973809Y-5686597D02*
X28892857Y-5686597D01*
X29580952Y-4917549D02*
X29621428Y-4877073D01*
X29621428Y-4877073D02*
X29702381Y-4836597D01*
X29702381Y-4836597D02*
X29904762Y-4836597D01*
X29904762Y-4836597D02*
X29985714Y-4877073D01*
X29985714Y-4877073D02*
X30026190Y-4917549D01*
X30026190Y-4917549D02*
X30066667Y-4998501D01*
X30066667Y-4998501D02*
X30066667Y-5079454D01*
X30066667Y-5079454D02*
X30026190Y-5200882D01*
X30026190Y-5200882D02*
X29540476Y-5686597D01*
X29540476Y-5686597D02*
X30066667Y-5686597D01*
X38216667Y-6536597D02*
X38216667Y-7143740D01*
X38216667Y-7143740D02*
X38176190Y-7265168D01*
X38176190Y-7265168D02*
X38095238Y-7346121D01*
X38095238Y-7346121D02*
X37973809Y-7386597D01*
X37973809Y-7386597D02*
X37892857Y-7386597D01*
X38540476Y-6536597D02*
X39066667Y-6536597D01*
X39066667Y-6536597D02*
X38783333Y-6860406D01*
X38783333Y-6860406D02*
X38904762Y-6860406D01*
X38904762Y-6860406D02*
X38985714Y-6900882D01*
X38985714Y-6900882D02*
X39026190Y-6941359D01*
X39026190Y-6941359D02*
X39066667Y-7022311D01*
X39066667Y-7022311D02*
X39066667Y-7224692D01*
X39066667Y-7224692D02*
X39026190Y-7305644D01*
X39026190Y-7305644D02*
X38985714Y-7346121D01*
X38985714Y-7346121D02*
X38904762Y-7386597D01*
X38904762Y-7386597D02*
X38661905Y-7386597D01*
X38661905Y-7386597D02*
X38580952Y-7346121D01*
X38580952Y-7346121D02*
X38540476Y-7305644D01*
D12*
X7333333Y-1454819D02*
X7333333Y-2169104D01*
X7333333Y-2169104D02*
X7285714Y-2311961D01*
X7285714Y-2311961D02*
X7190476Y-2407200D01*
X7190476Y-2407200D02*
X7047619Y-2454819D01*
X7047619Y-2454819D02*
X6952381Y-2454819D01*
X8333333Y-2454819D02*
X7761905Y-2454819D01*
X8047619Y-2454819D02*
X8047619Y-1454819D01*
X8047619Y-1454819D02*
X7952381Y-1597676D01*
X7952381Y-1597676D02*
X7857143Y-1692914D01*
X7857143Y-1692914D02*
X7761905Y-1740533D01*
X9952381Y-1788152D02*
X9952381Y-2454819D01*
X9714286Y-1407200D02*
X9476191Y-2121485D01*
X9476191Y-2121485D02*
X10095238Y-2121485D01*
X10476191Y-2454819D02*
X10476191Y-1454819D01*
X10476191Y-1454819D02*
X10857143Y-1454819D01*
X10857143Y-1454819D02*
X10952381Y-1502438D01*
X10952381Y-1502438D02*
X11000000Y-1550057D01*
X11000000Y-1550057D02*
X11047619Y-1645295D01*
X11047619Y-1645295D02*
X11047619Y-1788152D01*
X11047619Y-1788152D02*
X11000000Y-1883390D01*
X11000000Y-1883390D02*
X10952381Y-1931009D01*
X10952381Y-1931009D02*
X10857143Y-1978628D01*
X10857143Y-1978628D02*
X10476191Y-1978628D01*
X11904762Y-1788152D02*
X11904762Y-2454819D01*
X11666667Y-1407200D02*
X11428572Y-2121485D01*
X11428572Y-2121485D02*
X12047619Y-2121485D01*
X13000000Y-2359580D02*
X12952381Y-2407200D01*
X12952381Y-2407200D02*
X12809524Y-2454819D01*
X12809524Y-2454819D02*
X12714286Y-2454819D01*
X12714286Y-2454819D02*
X12571429Y-2407200D01*
X12571429Y-2407200D02*
X12476191Y-2311961D01*
X12476191Y-2311961D02*
X12428572Y-2216723D01*
X12428572Y-2216723D02*
X12380953Y-2026247D01*
X12380953Y-2026247D02*
X12380953Y-1883390D01*
X12380953Y-1883390D02*
X12428572Y-1692914D01*
X12428572Y-1692914D02*
X12476191Y-1597676D01*
X12476191Y-1597676D02*
X12571429Y-1502438D01*
X12571429Y-1502438D02*
X12714286Y-1454819D01*
X12714286Y-1454819D02*
X12809524Y-1454819D01*
X12809524Y-1454819D02*
X12952381Y-1502438D01*
X12952381Y-1502438D02*
X13000000Y-1550057D01*
X18666666Y-20954819D02*
X19285713Y-20954819D01*
X19285713Y-20954819D02*
X18952380Y-21335771D01*
X18952380Y-21335771D02*
X19095237Y-21335771D01*
X19095237Y-21335771D02*
X19190475Y-21383390D01*
X19190475Y-21383390D02*
X19238094Y-21431009D01*
X19238094Y-21431009D02*
X19285713Y-21526247D01*
X19285713Y-21526247D02*
X19285713Y-21764342D01*
X19285713Y-21764342D02*
X19238094Y-21859580D01*
X19238094Y-21859580D02*
X19190475Y-21907200D01*
X19190475Y-21907200D02*
X19095237Y-21954819D01*
X19095237Y-21954819D02*
X18809523Y-21954819D01*
X18809523Y-21954819D02*
X18714285Y-21907200D01*
X18714285Y-21907200D02*
X18666666Y-21859580D01*
X19571428Y-20954819D02*
X19904761Y-21954819D01*
X19904761Y-21954819D02*
X20238094Y-20954819D01*
X20476190Y-20954819D02*
X21095237Y-20954819D01*
X21095237Y-20954819D02*
X20761904Y-21335771D01*
X20761904Y-21335771D02*
X20904761Y-21335771D01*
X20904761Y-21335771D02*
X20999999Y-21383390D01*
X20999999Y-21383390D02*
X21047618Y-21431009D01*
X21047618Y-21431009D02*
X21095237Y-21526247D01*
X21095237Y-21526247D02*
X21095237Y-21764342D01*
X21095237Y-21764342D02*
X21047618Y-21859580D01*
X21047618Y-21859580D02*
X20999999Y-21907200D01*
X20999999Y-21907200D02*
X20904761Y-21954819D01*
X20904761Y-21954819D02*
X20619047Y-21954819D01*
X20619047Y-21954819D02*
X20523809Y-21907200D01*
X20523809Y-21907200D02*
X20476190Y-21859580D01*
X22476190Y-20954819D02*
X22666666Y-20954819D01*
X22666666Y-20954819D02*
X22761904Y-21002438D01*
X22761904Y-21002438D02*
X22857142Y-21097676D01*
X22857142Y-21097676D02*
X22904761Y-21288152D01*
X22904761Y-21288152D02*
X22904761Y-21621485D01*
X22904761Y-21621485D02*
X22857142Y-21811961D01*
X22857142Y-21811961D02*
X22761904Y-21907200D01*
X22761904Y-21907200D02*
X22666666Y-21954819D01*
X22666666Y-21954819D02*
X22476190Y-21954819D01*
X22476190Y-21954819D02*
X22380952Y-21907200D01*
X22380952Y-21907200D02*
X22285714Y-21811961D01*
X22285714Y-21811961D02*
X22238095Y-21621485D01*
X22238095Y-21621485D02*
X22238095Y-21288152D01*
X22238095Y-21288152D02*
X22285714Y-21097676D01*
X22285714Y-21097676D02*
X22380952Y-21002438D01*
X22380952Y-21002438D02*
X22476190Y-20954819D01*
X23333333Y-21954819D02*
X23333333Y-20954819D01*
X23333333Y-20954819D02*
X23904761Y-21954819D01*
X23904761Y-21954819D02*
X23904761Y-20954819D01*
X24857142Y-21954819D02*
X24380952Y-21954819D01*
X24380952Y-21954819D02*
X24380952Y-20954819D01*
X25380952Y-21478628D02*
X25380952Y-21954819D01*
X25047619Y-20954819D02*
X25380952Y-21478628D01*
X25380952Y-21478628D02*
X25714285Y-20954819D01*
X28904762Y-21954819D02*
X28571429Y-21478628D01*
X28333334Y-21954819D02*
X28333334Y-20954819D01*
X28333334Y-20954819D02*
X28714286Y-20954819D01*
X28714286Y-20954819D02*
X28809524Y-21002438D01*
X28809524Y-21002438D02*
X28857143Y-21050057D01*
X28857143Y-21050057D02*
X28904762Y-21145295D01*
X28904762Y-21145295D02*
X28904762Y-21288152D01*
X28904762Y-21288152D02*
X28857143Y-21383390D01*
X28857143Y-21383390D02*
X28809524Y-21431009D01*
X28809524Y-21431009D02*
X28714286Y-21478628D01*
X28714286Y-21478628D02*
X28333334Y-21478628D01*
X29333334Y-21431009D02*
X29666667Y-21431009D01*
X29809524Y-21954819D02*
X29333334Y-21954819D01*
X29333334Y-21954819D02*
X29333334Y-20954819D01*
X29333334Y-20954819D02*
X29809524Y-20954819D01*
X30095239Y-20954819D02*
X30428572Y-21954819D01*
X30428572Y-21954819D02*
X30761905Y-20954819D01*
X31809525Y-21669104D02*
X32285715Y-21669104D01*
X31714287Y-21954819D02*
X32047620Y-20954819D01*
X32047620Y-20954819D02*
X32380953Y-21954819D01*
D13*
X19476191Y-2768523D02*
X19476191Y-1518523D01*
X19476191Y-1518523D02*
X20190476Y-2768523D01*
X20190476Y-2768523D02*
X20190476Y-1518523D01*
X20785715Y-2113761D02*
X21202381Y-2113761D01*
X21380953Y-2768523D02*
X20785715Y-2768523D01*
X20785715Y-2768523D02*
X20785715Y-1518523D01*
X20785715Y-1518523D02*
X21380953Y-1518523D01*
X21797619Y-1518523D02*
X22630952Y-1518523D01*
X22630952Y-1518523D02*
X21797619Y-2768523D01*
X21797619Y-2768523D02*
X22630952Y-2768523D01*
X23107143Y-2768523D02*
X23107143Y-1518523D01*
X23107143Y-2113761D02*
X23821428Y-2113761D01*
X23821428Y-2768523D02*
X23821428Y-1518523D01*
X24357143Y-2411380D02*
X24952381Y-2411380D01*
X24238095Y-2768523D02*
X24654762Y-1518523D01*
X24654762Y-1518523D02*
X25071428Y-2768523D01*
X26440477Y-1935190D02*
X27392858Y-2292333D01*
X27392858Y-2292333D02*
X26440477Y-2649476D01*
X29773810Y-2887571D02*
X29654762Y-2828047D01*
X29654762Y-2828047D02*
X29535715Y-2709000D01*
X29535715Y-2709000D02*
X29357143Y-2530428D01*
X29357143Y-2530428D02*
X29238096Y-2470904D01*
X29238096Y-2470904D02*
X29119048Y-2470904D01*
X29178572Y-2768523D02*
X29059524Y-2709000D01*
X29059524Y-2709000D02*
X28940477Y-2589952D01*
X28940477Y-2589952D02*
X28880953Y-2351857D01*
X28880953Y-2351857D02*
X28880953Y-1935190D01*
X28880953Y-1935190D02*
X28940477Y-1697095D01*
X28940477Y-1697095D02*
X29059524Y-1578047D01*
X29059524Y-1578047D02*
X29178572Y-1518523D01*
X29178572Y-1518523D02*
X29416667Y-1518523D01*
X29416667Y-1518523D02*
X29535715Y-1578047D01*
X29535715Y-1578047D02*
X29654762Y-1697095D01*
X29654762Y-1697095D02*
X29714286Y-1935190D01*
X29714286Y-1935190D02*
X29714286Y-2351857D01*
X29714286Y-2351857D02*
X29654762Y-2589952D01*
X29654762Y-2589952D02*
X29535715Y-2709000D01*
X29535715Y-2709000D02*
X29416667Y-2768523D01*
X29416667Y-2768523D02*
X29178572Y-2768523D01*
X30130953Y-1518523D02*
X30428572Y-2768523D01*
X30428572Y-2768523D02*
X30666667Y-1875666D01*
X30666667Y-1875666D02*
X30904762Y-2768523D01*
X30904762Y-2768523D02*
X31202382Y-1518523D01*
X31678572Y-2768523D02*
X31678572Y-1518523D01*
X32273810Y-2768523D02*
X32273810Y-1518523D01*
X33583333Y-2649476D02*
X33523809Y-2709000D01*
X33523809Y-2709000D02*
X33345238Y-2768523D01*
X33345238Y-2768523D02*
X33226190Y-2768523D01*
X33226190Y-2768523D02*
X33047619Y-2709000D01*
X33047619Y-2709000D02*
X32928571Y-2589952D01*
X32928571Y-2589952D02*
X32869048Y-2470904D01*
X32869048Y-2470904D02*
X32809524Y-2232809D01*
X32809524Y-2232809D02*
X32809524Y-2054238D01*
X32809524Y-2054238D02*
X32869048Y-1816142D01*
X32869048Y-1816142D02*
X32928571Y-1697095D01*
X32928571Y-1697095D02*
X33047619Y-1578047D01*
X33047619Y-1578047D02*
X33226190Y-1518523D01*
X33226190Y-1518523D02*
X33345238Y-1518523D01*
X33345238Y-1518523D02*
X33523809Y-1578047D01*
X33523809Y-1578047D02*
X33583333Y-1637571D01*
D10*
%TO.C,J1*%
X1000000Y-6200000D02*
X6800000Y-6200000D01*
X1000000Y-17800000D02*
X1000000Y-6200000D01*
X1000000Y-17800000D02*
X6800000Y-17800000D01*
%TO.C,R1*%
X23090000Y-14927064D02*
X23090000Y-13472936D01*
X24910000Y-14927064D02*
X24910000Y-13472936D01*
%TO.C,J2*%
X28400000Y-6700000D02*
X30600000Y-6700000D01*
X28400000Y-17300000D02*
X30600000Y-17300000D01*
%TO.C,J3*%
X37390000Y-8890000D02*
X37390000Y-9940000D01*
X37390000Y-9940000D02*
X36400000Y-9940000D01*
X37390000Y-15110000D02*
X37390000Y-14060000D01*
X38540000Y-8890000D02*
X37390000Y-8890000D01*
X38540000Y-15110000D02*
X37390000Y-15110000D01*
X40510000Y-10060000D02*
X40510000Y-13940000D01*
%TD*%
M02*
